<svg width="147" height="32" viewBox="0 0 147 32" fill="none" xmlns="http://www.w3.org/2000/svg">
<path d="M60.5028 11.04V9.552H64.6548V11.04H60.5028ZM61.6068 6C62.2388 6 62.8188 6.108 63.3468 6.324C63.8748 6.532 64.3348 6.832 64.7268 7.224C65.1188 7.616 65.4228 8.076 65.6388 8.604C65.8548 9.132 65.9628 9.712 65.9628 10.344C65.9628 10.976 65.8548 11.556 65.6388 12.084C65.4228 12.612 65.1188 13.072 64.7268 13.464C64.3348 13.856 63.8748 14.16 63.3468 14.376C62.8188 14.584 62.2388 14.688 61.6068 14.688C60.8628 14.688 60.1908 14.56 59.5908 14.304C58.9988 14.048 58.5028 13.676 58.1028 13.188L59.3388 12.036C59.6348 12.372 59.9628 12.624 60.3228 12.792C60.6828 12.952 61.0788 13.032 61.5108 13.032C61.8708 13.032 62.2028 12.968 62.5068 12.84C62.8188 12.704 63.0828 12.52 63.2988 12.288C63.5228 12.048 63.6908 11.764 63.8028 11.436C63.9228 11.108 63.9828 10.744 63.9828 10.344C63.9828 9.944 63.9228 9.58 63.8028 9.252C63.6908 8.924 63.5228 8.644 63.2988 8.412C63.0828 8.172 62.8188 7.988 62.5068 7.86C62.2028 7.724 61.8708 7.656 61.5108 7.656C61.0788 7.656 60.6828 7.74 60.3228 7.908C59.9628 8.068 59.6348 8.316 59.3388 8.652L58.1028 7.5C58.5028 7.012 58.9988 6.64 59.5908 6.384C60.1908 6.128 60.8628 6 61.6068 6Z" fill="black"/>
<path d="M71.9132 14.544L69.7532 11.484L71.2772 10.584L74.1212 14.544H71.9132ZM67.3412 14.544V8.088H69.2132V14.544H67.3412ZM68.6612 12.096V10.596H70.9172V12.096H68.6612ZM71.4572 11.532L69.7052 11.34L71.9732 8.088H73.9652L71.4572 11.532Z" fill="black"/>
<path d="M77.8652 14.64C77.1772 14.64 76.5652 14.496 76.0292 14.208C75.5012 13.92 75.0812 13.528 74.7692 13.032C74.4652 12.528 74.3132 11.956 74.3132 11.316C74.3132 10.668 74.4652 10.096 74.7692 9.6C75.0812 9.096 75.5012 8.704 76.0292 8.424C76.5652 8.136 77.1772 7.992 77.8652 7.992C78.5452 7.992 79.1532 8.136 79.6892 8.424C80.2252 8.704 80.6452 9.092 80.9492 9.588C81.2532 10.084 81.4052 10.66 81.4052 11.316C81.4052 11.956 81.2532 12.528 80.9492 13.032C80.6452 13.528 80.2252 13.92 79.6892 14.208C79.1532 14.496 78.5452 14.64 77.8652 14.64ZM77.8652 13.104C78.1772 13.104 78.4572 13.032 78.7052 12.888C78.9532 12.744 79.1492 12.54 79.2932 12.276C79.4372 12.004 79.5092 11.684 79.5092 11.316C79.5092 10.94 79.4372 10.62 79.2932 10.356C79.1492 10.092 78.9532 9.888 78.7052 9.744C78.4572 9.6 78.1772 9.528 77.8652 9.528C77.5532 9.528 77.2732 9.6 77.0252 9.744C76.7772 9.888 76.5772 10.092 76.4252 10.356C76.2812 10.62 76.2092 10.94 76.2092 11.316C76.2092 11.684 76.2812 12.004 76.4252 12.276C76.5772 12.54 76.7772 12.744 77.0252 12.888C77.2732 13.032 77.5532 13.104 77.8652 13.104Z" fill="black"/>
<path d="M58.9188 29.544V21.144H60.8508V27.96H64.5948V21.144H66.5268V29.544H58.9188ZM65.9388 31.32V29.088L66.3588 29.544H64.5948V27.96H67.7268V31.32H65.9388Z" fill="black"/>
<path d="M68.8646 29.544V23.088H70.7246V26.928L73.8686 23.088H75.5846V29.544H73.7246V25.704L70.5926 29.544H68.8646Z" fill="black"/>
<path d="M77.3842 29.544V23.088H80.6842C81.4922 23.088 82.1242 23.236 82.5802 23.532C83.0362 23.82 83.2642 24.228 83.2642 24.756C83.2642 25.284 83.0482 25.7 82.6162 26.004C82.1922 26.3 81.6282 26.448 80.9242 26.448L81.1162 26.016C81.9002 26.016 82.4842 26.16 82.8682 26.448C83.2602 26.736 83.4562 27.156 83.4562 27.708C83.4562 28.276 83.2402 28.724 82.8082 29.052C82.3762 29.38 81.7162 29.544 80.8282 29.544H77.3842ZM79.1002 28.272H80.6722C81.0162 28.272 81.2722 28.216 81.4402 28.104C81.6162 27.984 81.7042 27.804 81.7042 27.564C81.7042 27.316 81.6242 27.136 81.4642 27.024C81.3042 26.904 81.0522 26.844 80.7082 26.844H79.1002V28.272ZM79.1002 25.74H80.5162C80.8442 25.74 81.0882 25.68 81.2482 25.56C81.4162 25.44 81.5002 25.268 81.5002 25.044C81.5002 24.812 81.4162 24.64 81.2482 24.528C81.0882 24.416 80.8442 24.36 80.5162 24.36H79.1002V25.74Z" fill="black"/>
<path d="M84.849 29.544V23.088H86.709V26.928L89.853 23.088H91.569V29.544H89.709V25.704L86.577 29.544H84.849Z" fill="black"/>
<path d="M92.5525 29.532L92.6485 27.996C92.6965 28.004 92.7445 28.012 92.7925 28.02C92.8405 28.02 92.8845 28.02 92.9245 28.02C93.1485 28.02 93.3245 27.956 93.4525 27.828C93.5805 27.7 93.6765 27.528 93.7405 27.312C93.8045 27.088 93.8485 26.836 93.8725 26.556C93.9045 26.276 93.9285 25.984 93.9445 25.68L94.0405 23.088H99.5605V29.544H97.6885V24.168L98.1085 24.624H95.2765L95.6725 24.144L95.5885 25.764C95.5645 26.34 95.5165 26.868 95.4445 27.348C95.3805 27.828 95.2725 28.244 95.1205 28.596C94.9685 28.94 94.7645 29.208 94.5085 29.4C94.2525 29.584 93.9245 29.676 93.5245 29.676C93.3805 29.676 93.2285 29.664 93.0685 29.64C92.9085 29.616 92.7365 29.58 92.5525 29.532Z" fill="black"/>
<path d="M101.361 29.544V23.088H103.221V26.928L106.365 23.088H108.081V29.544H106.221V25.704L103.089 29.544H101.361Z" fill="black"/>
<path d="M112.006 29.664C111.51 29.664 111.014 29.612 110.518 29.508C110.03 29.404 109.578 29.248 109.162 29.04L109.666 27.732C109.994 27.892 110.35 28.016 110.734 28.104C111.126 28.184 111.522 28.224 111.922 28.224C112.21 28.224 112.458 28.196 112.666 28.14C112.882 28.076 113.046 27.988 113.158 27.876C113.27 27.764 113.326 27.628 113.326 27.468C113.326 27.26 113.238 27.104 113.062 27C112.886 26.888 112.63 26.832 112.294 26.832H110.974V25.668H112.138C112.354 25.668 112.538 25.644 112.69 25.596C112.842 25.548 112.954 25.48 113.026 25.392C113.106 25.296 113.146 25.184 113.146 25.056C113.146 24.92 113.098 24.804 113.002 24.708C112.906 24.612 112.766 24.54 112.582 24.492C112.398 24.436 112.166 24.408 111.886 24.408C111.566 24.408 111.234 24.448 110.89 24.528C110.546 24.6 110.194 24.708 109.834 24.852L109.378 23.556C109.802 23.38 110.222 23.24 110.638 23.136C111.054 23.032 111.466 22.976 111.874 22.968C112.474 22.952 113.014 23.016 113.494 23.16C113.974 23.304 114.35 23.512 114.622 23.784C114.902 24.056 115.042 24.388 115.042 24.78C115.042 25.092 114.946 25.372 114.754 25.62C114.57 25.868 114.314 26.064 113.986 26.208C113.658 26.344 113.29 26.412 112.882 26.412L112.93 26.04C113.642 26.04 114.202 26.184 114.61 26.472C115.018 26.752 115.222 27.136 115.222 27.624C115.222 28.04 115.078 28.404 114.79 28.716C114.51 29.02 114.126 29.256 113.638 29.424C113.158 29.584 112.614 29.664 112.006 29.664Z" fill="black"/>
<path d="M120.424 29.544V28.284L120.304 28.008V25.752C120.304 25.352 120.18 25.04 119.932 24.816C119.692 24.592 119.32 24.48 118.816 24.48C118.472 24.48 118.132 24.536 117.796 24.648C117.468 24.752 117.188 24.896 116.956 25.08L116.284 23.772C116.636 23.524 117.06 23.332 117.556 23.196C118.052 23.06 118.556 22.992 119.068 22.992C120.052 22.992 120.816 23.224 121.36 23.688C121.904 24.152 122.176 24.876 122.176 25.86V29.544H120.424ZM118.456 29.64C117.952 29.64 117.52 29.556 117.16 29.388C116.8 29.212 116.524 28.976 116.332 28.68C116.14 28.384 116.044 28.052 116.044 27.684C116.044 27.3 116.136 26.964 116.32 26.676C116.512 26.388 116.812 26.164 117.22 26.004C117.628 25.836 118.16 25.752 118.816 25.752H120.532V26.844H119.02C118.58 26.844 118.276 26.916 118.108 27.06C117.948 27.204 117.868 27.384 117.868 27.6C117.868 27.84 117.96 28.032 118.144 28.176C118.336 28.312 118.596 28.38 118.924 28.38C119.236 28.38 119.516 28.308 119.764 28.164C120.012 28.012 120.192 27.792 120.304 27.504L120.592 28.368C120.456 28.784 120.208 29.1 119.848 29.316C119.488 29.532 119.024 29.64 118.456 29.64Z" fill="black"/>
<path d="M123.802 29.544V23.088H125.662V28.008H128.266V23.088H130.138V29.544H123.802ZM129.334 30.936V29.52L129.766 29.544H128.266V28.008H131.074V30.936H129.334Z" fill="black"/>
<path d="M132.251 29.544V23.088H134.111V26.928L137.255 23.088H138.971V29.544H137.111V25.704L133.979 29.544H132.251Z" fill="black"/>
<path d="M144.839 29.544V27.396L145.103 27.696H143.315C142.387 27.696 141.659 27.504 141.131 27.12C140.603 26.736 140.339 26.184 140.339 25.464C140.339 24.696 140.615 24.108 141.167 23.7C141.727 23.292 142.479 23.088 143.423 23.088H146.507V29.544H144.839ZM140.243 29.544L141.959 27.084H143.867L142.235 29.544H140.243ZM144.839 26.82V24.132L145.103 24.612H143.459C143.075 24.612 142.775 24.684 142.559 24.828C142.351 24.972 142.247 25.204 142.247 25.524C142.247 26.14 142.643 26.448 143.435 26.448H145.103L144.839 26.82Z" fill="black"/>
<path fill-rule="evenodd" clip-rule="evenodd" d="M49.4299 31.3458H0V28.9346H49.4299V31.3458Z" fill="#3FAA35"/>
<path fill-rule="evenodd" clip-rule="evenodd" d="M15.07 8.03735L27.327 20.2257L25.6038 21.9393L24.1941 20.5375V29.3364H21.7571V18.1142L15.07 11.4645L8.38288 18.1142V29.3364H5.94588V20.5375L4.53621 21.9393L2.81299 20.2257L15.07 8.03735Z" fill="#3FAA35"/>
<path fill-rule="evenodd" clip-rule="evenodd" d="M11 19H19V31H11V19ZM13.3529 21.5237V28.4763H16.6471V21.5237H13.3529Z" fill="#3FAA35"/>
<path fill-rule="evenodd" clip-rule="evenodd" d="M24.7933 0.803711L34.1588 16.8649L32.0255 18.0841L24.7936 5.68191L19.8153 14.219L17.6821 12.9996L24.7933 0.803711Z" fill="#3FAA35"/>
<path fill-rule="evenodd" clip-rule="evenodd" d="M35.3751 7.6355L44.6075 29.5767L42.3557 30.542L35.5341 14.3303L29.6221 30.4872L27.3271 29.6315L32 16.8622L35.3751 7.6355Z" fill="#3FAA35"/>
<path fill-rule="evenodd" clip-rule="evenodd" d="M14.2725 2.44095C10.8459 2.44095 8.07075 5.21395 8.07075 8.63363C8.07075 10.7193 9.10007 12.5614 10.6822 13.6819L9.2679 15.6729C7.06587 14.1133 5.62622 11.5421 5.62622 8.63363C5.62622 3.86637 9.4953 0 14.2725 0C19.0404 0 22.6291 3.59529 22.9043 8.10041L22.9066 8.13754V8.17961H21.6042L20.4643 8.24905C20.2653 4.99196 17.7085 2.44095 14.2725 2.44095Z" fill="#3FAA35"/>
<path fill-rule="evenodd" clip-rule="evenodd" d="M49.4299 31.3458H0V28.9346H49.4299V31.3458Z" fill="#3FAA35"/>
<path fill-rule="evenodd" clip-rule="evenodd" d="M15.07 8.03735L27.327 20.2257L25.6038 21.9393L24.1941 20.5375V29.3364H21.7571V18.1142L15.07 11.4645L8.38288 18.1142V29.3364H5.94588V20.5375L4.53621 21.9393L2.81299 20.2257L15.07 8.03735Z" fill="#3FAA35"/>
<path fill-rule="evenodd" clip-rule="evenodd" d="M11 19H19V31H11V19ZM13.3529 21.5237V28.4763H16.6471V21.5237H13.3529Z" fill="#3FAA35"/>
<path fill-rule="evenodd" clip-rule="evenodd" d="M24.7933 0.803711L34.1588 16.8649L32.0255 18.0841L24.7936 5.68191L19.8153 14.219L17.6821 12.9996L24.7933 0.803711Z" fill="#3FAA35"/>
<path fill-rule="evenodd" clip-rule="evenodd" d="M35.3751 7.6355L44.6075 29.5767L42.3557 30.542L35.5341 14.3303L29.6221 30.4872L27.3271 29.6315L32 16.8622L35.3751 7.6355Z" fill="#3FAA35"/>
<path fill-rule="evenodd" clip-rule="evenodd" d="M14.2725 2.44095C10.8459 2.44095 8.07075 5.21395 8.07075 8.63363C8.07075 10.7193 9.10007 12.5614 10.6822 13.6819L9.2679 15.6729C7.06587 14.1133 5.62622 11.5421 5.62622 8.63363C5.62622 3.86637 9.4953 0 14.2725 0C19.0404 0 22.6291 3.59529 22.9043 8.10041L22.9066 8.13754V8.17961H21.6042L20.4643 8.24905C20.2653 4.99196 17.7085 2.44095 14.2725 2.44095Z" fill="#3FAA35"/>
</svg>
