<svg width="1920" height="946" viewBox="0 0 1920 946" fill="none" xmlns="http://www.w3.org/2000/svg">
<g clip-path="url(#clip0_126_494)">
<path d="M1515.2 389.893L1712.78 284.799L1676.76 247.58C1663.95 234.35 1643.95 231.19 1627.71 239.843L1527.45 293.158C1511.45 301.673 1502.75 319.531 1505.91 337.389L1515.2 389.91V389.893Z" fill="#B1D000"/>
<path d="M1535.91 435.765L1662.23 632.499C1667.99 641.497 1679.69 644.554 1689.14 639.528L1825.96 566.748C1834.04 562.448 1837.44 552.655 1833.77 544.279L1737.19 323.814L1535.91 435.748V435.765Z" fill="#B1D000"/>
<path d="M1648.57 467.112L1639.15 466.904C1638.51 466.904 1638.22 467.664 1638.68 468.096L1657.86 485.194C1658.08 485.401 1658.43 485.419 1658.69 485.246L1680.66 470.324C1681.18 469.961 1680.97 469.15 1680.35 469.08L1671.62 468.2C1671.31 468.165 1671.05 467.941 1671.01 467.612C1670.62 464.158 1668.72 444.728 1674.02 436.317C1674.4 435.73 1673.76 435.039 1673.14 435.367L1657.41 443.727C1653.96 445.557 1651.61 448.96 1651.09 452.828L1649.26 466.524C1649.21 466.87 1648.92 467.129 1648.57 467.112Z" fill="white"/>
<path d="M1674.93 449.374C1674.38 449.046 1674.07 448.442 1674.1 447.803C1674.27 444.504 1675.38 434.279 1682.21 431.81C1688.93 429.392 1697.49 436.68 1700.41 439.426C1701.01 439.996 1701.12 440.911 1700.67 441.62L1690.83 457.146C1690.31 457.958 1689.26 458.2 1688.45 457.699L1674.95 449.374H1674.93Z" fill="white"/>
<path d="M1722.42 453.416L1727.54 445.505C1727.89 444.97 1727.39 444.296 1726.78 444.486L1702.17 451.792C1701.87 451.878 1701.67 452.155 1701.69 452.466L1702.79 479.011C1702.82 479.65 1703.62 479.892 1704.02 479.391L1709.37 472.414C1709.56 472.155 1709.9 472.068 1710.18 472.206C1713.32 473.692 1730.84 482.31 1735.21 491.239C1735.52 491.861 1736.43 491.688 1736.48 490.997L1737.66 473.225C1737.92 469.322 1736.28 465.54 1733.26 463.053L1722.59 454.296C1722.33 454.072 1722.26 453.692 1722.45 453.398L1722.42 453.416Z" fill="white"/>
<path d="M1723.59 485.177C1724.16 484.883 1724.83 484.935 1725.37 485.298C1728.08 487.18 1736.19 493.501 1734.69 500.617C1733.22 507.594 1722.5 511.049 1718.64 512.085C1717.82 512.292 1717 511.895 1716.63 511.152L1708.62 494.607C1708.21 493.743 1708.55 492.707 1709.42 492.292L1723.61 485.194L1723.59 485.177Z" fill="white"/>
<path d="M1697.2 522.292L1701.62 530.617C1701.91 531.17 1702.74 531.066 1702.88 530.444L1708.4 505.349C1708.47 505.039 1708.31 504.728 1708.04 504.59L1684.29 492.707C1683.72 492.431 1683.11 493.001 1683.35 493.588L1686.88 501.636C1687 501.93 1686.93 502.258 1686.67 502.448C1683.84 504.486 1667.84 515.643 1657.91 515.142C1657.22 515.108 1656.93 515.988 1657.51 516.368L1672.48 526.005C1675.78 528.113 1679.87 528.51 1683.51 527.076L1696.33 521.981C1696.66 521.861 1697.02 521.981 1697.18 522.292H1697.2Z" fill="white"/>
<path d="M1668.85 507.957C1668.82 508.596 1668.46 509.166 1667.89 509.443C1664.92 510.911 1655.48 514.952 1649.97 510.168C1644.57 505.505 1646.74 494.451 1647.71 490.565C1647.92 489.754 1648.66 489.218 1649.49 489.27L1667.84 490.272C1668.79 490.324 1669.53 491.135 1669.49 492.085L1668.84 507.94L1668.85 507.957Z" fill="white"/>
<path d="M1757.9 318.495L1517.87 446.162L1498.09 408.908C1495.68 404.366 1497.4 398.719 1501.94 396.318L1725.52 277.39C1730.06 274.972 1735.71 276.699 1738.11 281.241L1757.89 318.495H1757.9Z" fill="#B1D000"/>
<path d="M1541.74 311.883L1633.93 262.86C1638.68 260.331 1644.59 262.139 1647.12 266.897L1660.51 292.107C1661.36 293.708 1660.75 295.694 1659.15 296.545L1554.83 352.019C1553.23 352.87 1551.25 352.263 1550.4 350.662L1537.38 326.154C1534.65 321.014 1536.61 314.615 1541.74 311.883Z" fill="#224C23"/>
<path d="M1543.34 318.377L1638.31 267.871C1642.32 265.739 1647.32 267.268 1649.45 271.279L1660.76 292.569C1661.47 293.912 1660.96 295.593 1659.61 296.306L1554.4 352.259C1553.06 352.973 1551.38 352.458 1550.66 351.116L1539.67 330.421C1537.36 326.074 1539.01 320.679 1543.36 318.369L1543.34 318.377Z" fill="#3C643E"/>
<path d="M1746.39 344.816L1545.84 451.482L1536.29 436.49L1739.26 328.529L1746.39 344.816Z" fill="#AABC02"/>
<path d="M1562.99 364.471L1519.1 387.821" stroke="#89960B" stroke-width="0.67" stroke-miterlimit="10" stroke-linecap="round"/>
<path d="M1709.33 286.63L1580.41 355.196" stroke="#89960B" stroke-width="0.67" stroke-miterlimit="10" stroke-linecap="round"/>
<path d="M1722.43 287.2L1632.26 335.162" stroke="#89960B" stroke-width="0.67" stroke-miterlimit="10" stroke-linecap="round"/>
<path d="M1663.12 328.029L1588.54 367.7" stroke="#89960B" stroke-width="0.67" stroke-miterlimit="10" stroke-linecap="round"/>
<path d="M1631.38 248.392C1631.38 248.392 1656.1 229.169 1689.24 276.509" stroke="#89960B" stroke-width="0.67" stroke-miterlimit="10" stroke-linecap="round"/>
<path d="M1758.15 406.007L1818.02 536.611" stroke="#89960B" stroke-width="0.67" stroke-miterlimit="10" stroke-linecap="round"/>
<path d="M1727.65 595.988L1804.63 555.039" stroke="#89960B" stroke-width="0.67" stroke-miterlimit="10" stroke-linecap="round"/>
<path d="M1690.64 600.202L1770.4 557.768" stroke="#89960B" stroke-width="0.67" stroke-miterlimit="10" stroke-linecap="round"/>
<path d="M1337.07 -325.608C1337.07 -325.608 1361.83 -181.378 1287.71 -117.492C1228.33 -66.3184 1228.73 -30.7401 1243.76 -12.8474C1267.05 14.8726 1360.7 -43.8488 1382.16 -224.434C1403.61 -405.02 1337.09 -325.591 1337.09 -325.591L1337.07 -325.608Z" fill="#5B9739"/>
<path d="M1421.86 -82.5366C1421.86 -82.5366 1427.28 -125.956 1452.19 -135.852C1477.1 -145.749 1505.89 -96.2844 1502.75 -115.403C1499.6 -134.522 1463.6 -147.873 1463.6 -147.873C1463.6 -147.873 1465.12 -160.653 1501.54 -171.759C1537.96 -182.847 1555.94 -116.008 1555.94 -116.008C1670.75 -107.39 1613.92 -37.4593 1604.95 -32.4162C1595.97 -27.3731 1569.17 -72.6576 1566.06 -66.5782C1562.95 -60.5161 1589.88 -42.0189 1595.7 -24.7133C1601.51 -7.40777 1566.99 33.11 1553.1 35.9942C1539.2 38.8785 1549.64 -17.7704 1536.7 -10.2575C1523.75 -2.74461 1563.14 42.4018 1512.57 57.1167C1461.99 71.8316 1468.79 71.7279 1490.46 33.9735C1512.12 -3.7636 1484.16 -22.1572 1484.12 -0.0848777C1483.98 81.5897 1406.05 68.671 1406.05 68.671C1391.9 -20.8446 1467.36 -20.8619 1461.06 -30.2228C1454.78 -39.5664 1401.53 13.7492 1406.12 -4.74804C1410.71 -23.2453 1387.08 -34.5751 1404.5 -60.6025C1421.93 -86.6299 1483.26 -67.9772 1480.51 -87.597C1477.77 -107.217 1421.86 -82.5539 1421.86 -82.5539V-82.5366ZM1544.31 -31.6045C1548.33 -17.494 1558.22 -9.68754 1564.13 -15.0243C1570.03 -20.361 1555.01 -45.1277 1555.01 -45.1277C1546.73 -51.8633 1540.27 -45.7149 1544.31 -31.6045ZM1468.22 -53.884C1484.88 -49.6181 1491.01 -51.8288 1495.48 -55.4212C1495.48 -55.4212 1482.67 -66.5955 1471.3 -63.694C1459.9 -60.7925 1451.57 -58.1672 1468.22 -53.884ZM1517.26 -123.244C1524.58 -117.182 1530.57 -108.84 1533.81 -116.82C1533.81 -116.82 1531.66 -133.192 1521.71 -134.712C1511.76 -136.232 1509.94 -129.307 1517.26 -123.244Z" fill="#A4CA62"/>
<path d="M-29.133 253.553C-29.133 253.553 -69.4451 270.568 -90.4693 253.946C-111.493 237.324 -83.0518 187.658 -98.0386 199.938C-113.025 212.218 -106.584 250.076 -106.584 250.076C-106.584 250.076 -118.412 255.15 -146.24 229.162C-174.052 203.165 -125.161 154.169 -125.161 154.169C-175.099 50.4385 -86.1259 64.6834 -77.2706 69.935C-68.4152 75.1865 -94.2297 121.044 -87.4113 120.695C-80.6079 120.354 -78.0523 87.7863 -65.9737 74.0959C-53.8951 60.4055 -1.54483 70.0434 7.90052 80.6347C17.3459 91.226 -36.9349 110.507 -23.9557 117.962C-10.9765 125.416 8.42667 68.731 46.4574 105.172C84.4881 141.614 80.9979 135.776 37.4704 135.893C-6.04211 136.001 -7.99014 169.414 11.1423 158.408C81.9436 117.69 109.722 191.642 109.722 191.642C39.2764 248.657 1.52912 183.311 -3.42753 193.448C-8.37785 203.561 64.4197 223.019 46.1049 228.291C27.7901 233.564 29.7933 259.693 -1.45518 257.624C-32.7123 255.539 -47.2226 193.102 -62.8416 205.288C-78.4607 217.475 -29.1479 253.561 -29.1479 253.561L-29.133 253.553ZM-46.2488 122.043C-36.0397 111.505 -34.2243 99.0359 -41.7977 96.5919C-49.3711 94.148 -63.3111 119.536 -63.3111 119.536C-65.0017 130.079 -56.4492 132.596 -46.2488 122.043ZM-27.5004 199.075C-32.1344 182.517 -37.1127 178.316 -42.4591 176.24C-42.4591 176.24 -45.7326 192.919 -37.5323 201.319C-29.3234 209.734 -22.8814 215.642 -27.5004 199.075ZM-112.087 191.287C-110.497 181.918 -106.267 172.56 -114.8 173.739C-114.8 173.739 -127.9 183.794 -124.246 193.164C-120.582 202.549 -113.678 200.656 -112.087 191.287Z" fill="#A4CA62"/>
<path d="M299.656 204.365C322.268 210.358 342.291 224.278 355.806 243.397C390.483 292.482 367.354 347.317 345.847 374.018C320.542 405.434 261.993 419.372 241.09 421.807C220.204 424.242 217.115 436.228 217.115 436.228L192.276 418.957L167.438 401.686C167.438 401.686 177.587 394.605 172.582 374.173C167.576 353.725 160.206 293.95 180.798 259.269C198.3 229.788 241.608 188.959 299.674 204.365H299.656Z" fill="white"/>
<path d="M217.115 436.228L197.8 464.035C189.584 475.865 173.393 478.853 161.656 470.684L154.475 465.693C142.738 457.523 139.872 441.323 148.089 429.475L167.403 401.669L217.115 436.228Z" fill="#B1D000"/>
<path d="M154.731 416.477L210.008 450.637C211.273 451.419 212.932 451.026 213.714 449.76L215.047 447.6C215.829 446.334 215.436 444.674 214.171 443.892L158.894 409.732C157.629 408.95 155.969 409.343 155.188 410.609L153.855 412.769C153.073 414.035 153.465 415.695 154.731 416.477Z" fill="#5B9739"/>
<path d="M146.437 430.48L199.452 463.242C200.717 464.024 202.377 463.631 203.158 462.365L204.491 460.205C205.273 458.939 204.881 457.279 203.615 456.497L150.6 423.735C149.334 422.953 147.675 423.346 146.894 424.612L145.561 426.772C144.779 428.038 145.171 429.698 146.437 430.48Z" fill="#5B9739"/>
<path d="M140.291 444.984L189.282 475.26C190.548 476.041 192.207 475.649 192.988 474.383L194.321 472.223C195.103 470.957 194.711 469.297 193.445 468.515L144.454 438.239C143.188 437.457 141.529 437.85 140.748 439.116L139.415 441.276C138.633 442.542 139.025 444.202 140.291 444.984Z" fill="#5B9739"/>
<path d="M211.177 359.476C205.878 343.345 192.362 286.955 248.357 252.689C250.463 251.411 253.207 252.257 254.156 254.537C260.802 270.254 279.323 327.214 216.925 361.704C214.715 362.93 211.936 361.877 211.159 359.476H211.177Z" fill="#B1D000"/>
<path d="M192.259 418.957C192.259 418.957 207.794 386.591 214.284 358.941L250.739 257.404" stroke="#5B9739" stroke-width="0.5" stroke-miterlimit="10" stroke-linecap="round"/>
<path d="M253.259 276.938C253.259 276.938 239.986 291.687 235.584 299.545" stroke="#5B9739" stroke-width="0.5" stroke-miterlimit="10" stroke-linecap="round"/>
<path d="M226.073 284.174C226.073 284.174 233.237 301.238 229.025 317.611" stroke="#5B9739" stroke-width="0.5" stroke-miterlimit="10" stroke-linecap="round"/>
<path d="M252.017 315.193C252.017 315.193 232.615 319.804 223.433 333.759" stroke="#5B9739" stroke-width="0.5" stroke-miterlimit="10" stroke-linecap="round"/>
<path d="M215.251 313.155C215.251 313.155 222.414 330.219 218.203 346.591" stroke="#5B9739" stroke-width="0.5" stroke-miterlimit="10" stroke-linecap="round"/>
<path d="M221.188 371.065C230.129 362.654 262.977 336.54 302.539 362.827C304.023 363.811 304.299 365.883 303.108 367.196C294.84 376.367 263.167 405.918 221.499 375.521C220.032 374.45 219.859 372.308 221.188 371.048V371.065Z" fill="#B1D000"/>
<path d="M300.174 365.814L222.483 372.93C222.483 372.93 214.232 373.016 201.131 398.923" stroke="#5B9739" stroke-width="0.5" stroke-miterlimit="10" stroke-linecap="round"/>
<path d="M288.143 373.448C288.143 373.448 274.421 369.251 267.931 368.768" stroke="#5B9739" stroke-width="0.5" stroke-miterlimit="10" stroke-linecap="round"/>
<path d="M275.094 357.818C275.094 357.818 266.101 367.731 254.088 369.977" stroke="#5B9739" stroke-width="0.5" stroke-miterlimit="10" stroke-linecap="round"/>
<path d="M262.701 384.329C262.701 384.329 253.742 372.999 241.798 371.254" stroke="#5B9739" stroke-width="0.5" stroke-miterlimit="10" stroke-linecap="round"/>
<path d="M252.793 359.58C252.793 359.58 243.8 369.493 231.786 371.738" stroke="#5B9739" stroke-width="0.5" stroke-miterlimit="10" stroke-linecap="round"/>
<path d="M337.855 355.296C332.625 362.187 326.014 369.078 317.746 375.848" stroke="#5B9739" stroke-width="0.5" stroke-miterlimit="10" stroke-linecap="round"/>
<path d="M353.182 324.122C351.197 332.032 347.849 340.201 342.636 348.422" stroke="#5B9739" stroke-width="0.5" stroke-miterlimit="10" stroke-linecap="round"/>
<path d="M343.137 257.732C343.137 257.732 357.084 274.883 355.426 308.958" stroke="#5B9739" stroke-width="0.5" stroke-miterlimit="10" stroke-linecap="round"/>
<path d="M337.354 283C339.339 291.532 339.84 301.273 337.7 312.084" stroke="#5B9739" stroke-width="0.5" stroke-miterlimit="10" stroke-linecap="round"/>
<path d="M312.653 242.914C312.653 242.914 323.286 251.204 331.053 266.109" stroke="#5B9739" stroke-width="0.5" stroke-miterlimit="10" stroke-linecap="round"/>
<path d="M1383.35 404.972C1385.37 404.42 1386.97 403.694 1388.27 402.848C1388.27 402.848 1388.27 402.883 1388.23 402.9C1388.42 402.779 1388.56 402.658 1388.74 402.537C1388.98 402.364 1389.24 402.192 1389.46 402.002C1389.67 401.829 1389.84 401.656 1390.03 401.484C1390.46 401.086 1390.84 400.672 1391.17 400.24C1391.27 400.102 1391.39 399.964 1391.5 399.826C1391.65 399.584 1391.79 399.359 1391.93 399.118C1392.02 398.962 1392.12 398.789 1392.2 398.634C1392.33 398.392 1392.43 398.168 1392.52 397.926C1392.58 397.753 1392.65 397.58 1392.71 397.425C1392.79 397.183 1392.86 396.959 1392.91 396.717C1392.96 396.544 1393 396.389 1393.03 396.216C1393.09 395.974 1393.14 395.75 1393.17 395.525C1393.19 395.37 1393.21 395.214 1393.22 395.059C1393.24 394.834 1393.28 394.61 1393.29 394.385C1393.29 394.247 1393.29 394.126 1393.29 394.005C1393.29 393.556 1393.29 393.107 1393.26 392.693C1393.26 392.589 1393.26 392.468 1393.24 392.382C1393.22 392.192 1393.19 392.019 1393.17 391.846C1393.15 391.726 1393.14 391.587 1393.12 391.484C1393.1 391.328 1393.07 391.19 1393.03 391.052C1393.02 390.931 1392.98 390.827 1392.96 390.707C1392.93 390.586 1392.91 390.482 1392.88 390.361C1392.84 390.257 1392.83 390.171 1392.81 390.085C1392.79 389.998 1392.76 389.929 1392.74 389.86C1392.71 389.774 1392.69 389.705 1392.67 389.653C1392.67 389.601 1392.64 389.567 1392.64 389.532C1392.62 389.463 1392.6 389.428 1392.6 389.428C1403.56 392.019 1404.49 388.755 1407.52 382.365C1407.76 381.829 1408.03 381.294 1408.31 380.724C1409.9 377.546 1411.23 376.113 1412.45 375.128C1413.14 374.575 1413.82 374.144 1414.47 373.643C1414.56 373.591 1414.63 373.522 1414.71 373.453C1414.8 373.384 1414.9 373.297 1414.99 373.211C1415.09 373.125 1415.18 373.038 1415.28 372.935C1415.37 372.848 1415.46 372.779 1415.52 372.693C1415.63 372.589 1415.73 372.468 1415.85 372.33C1415.92 372.244 1416.01 372.157 1416.08 372.071C1416.2 371.916 1416.32 371.743 1416.46 371.57C1416.53 371.484 1416.58 371.398 1416.65 371.311C1416.65 371.294 1416.68 371.277 1416.7 371.259C1416.87 371 1417.04 370.707 1417.23 370.396C1419.01 367.27 1412.99 364.835 1404.82 365.353C1404.01 365.405 1403.17 365.491 1402.32 365.594C1400.61 365.819 1398.85 366.164 1397.06 366.665C1396.16 366.907 1395.26 367.201 1394.36 367.529C1393.91 367.684 1393.46 367.857 1393.02 368.047C1391.67 368.582 1390.34 369.221 1389.05 369.947H1389.01C1388.42 370.292 1387.86 370.603 1387.32 370.897C1387.18 370.966 1387.04 371.035 1386.92 371.121C1386.39 371.398 1385.89 371.674 1385.4 371.933C1385.32 371.985 1385.25 372.019 1385.16 372.054C1384.73 372.278 1384.33 372.486 1383.94 372.676C1383.85 372.727 1383.75 372.779 1383.66 372.814C1383.23 373.021 1382.83 373.228 1382.45 373.401C1382.37 373.436 1382.28 373.487 1382.19 373.522C1381.85 373.677 1381.52 373.833 1381.21 373.971L1381.07 374.04C1380.74 374.195 1380.42 374.334 1380.12 374.455C1380.05 374.489 1379.97 374.524 1379.9 374.541C1379.6 374.662 1379.33 374.765 1379.07 374.869L1378.98 374.904C1378.76 374.99 1378.53 375.076 1378.33 375.145C1378.28 375.163 1378.22 375.18 1378.17 375.197C1377.96 375.266 1377.76 375.335 1377.58 375.387C1377.55 375.387 1377.5 375.404 1377.46 375.422C1377.31 375.474 1377.15 375.508 1377.02 375.543H1376.93C1376.77 375.594 1376.64 375.629 1376.51 375.646H1376.43C1376.31 375.681 1376.19 375.698 1376.1 375.698C1376 375.698 1375.91 375.698 1375.82 375.698H1375.77C1375.77 375.698 1375.62 375.698 1375.57 375.681C1375.57 375.681 1375.46 375.646 1375.41 375.629C1375.41 375.629 1375.32 375.594 1375.31 375.56C1375.2 375.491 1375.19 375.404 1375.17 375.387C1376.12 375.145 1376.95 374.524 1377.41 373.574C1377.79 372.779 1377.83 371.933 1377.58 371.156C1380.4 370.534 1385.01 369.1 1387.98 366.026C1388.17 365.819 1388.17 365.491 1387.98 365.301C1387.77 365.111 1387.44 365.111 1387.25 365.301C1384.4 368.237 1379.79 369.619 1377.14 370.189C1376.81 369.722 1376.39 369.342 1375.84 369.083C1375.19 368.772 1374.46 368.686 1373.79 368.807C1372.58 366.458 1370.58 361.795 1371.11 357.563C1371.15 357.287 1370.96 357.028 1370.66 356.994C1370.39 356.959 1370.13 357.149 1370.09 357.443C1369.52 361.916 1371.53 366.665 1372.8 369.152C1372.2 369.48 1371.68 369.981 1371.35 370.655C1370.91 371.605 1370.94 372.641 1371.35 373.522C1371.32 373.539 1371.28 373.574 1371.25 373.591H1371.22C1371.22 373.591 1371.11 373.522 1371.06 373.47C1371.06 373.47 1371.03 373.436 1371.01 373.418C1370.96 373.366 1370.92 373.332 1370.87 373.263C1370.85 373.228 1370.82 373.194 1370.8 373.159C1370.75 373.09 1370.7 373.021 1370.65 372.935C1370.61 372.9 1370.59 372.848 1370.56 372.814C1370.49 372.71 1370.42 372.572 1370.35 372.434C1370.34 372.399 1370.32 372.365 1370.3 372.33C1370.21 372.14 1370.11 371.933 1370.02 371.691C1370.01 371.639 1369.97 371.57 1369.96 371.518C1369.87 371.328 1369.8 371.104 1369.71 370.879C1369.68 370.776 1369.64 370.672 1369.61 370.569C1369.52 370.344 1369.46 370.085 1369.37 369.826C1369.33 369.705 1369.3 369.601 1369.27 369.48C1369.16 369.118 1369.06 368.738 1368.94 368.323C1368.94 368.271 1368.92 368.237 1368.9 368.185C1368.78 367.702 1368.64 367.183 1368.52 366.613C1368.49 366.475 1368.45 366.303 1368.42 366.164C1368.32 365.733 1368.21 365.266 1368.13 364.783C1368.07 364.575 1368.04 364.351 1367.99 364.126C1367.88 363.643 1367.78 363.125 1367.68 362.572C1367.63 362.348 1367.59 362.123 1367.54 361.881C1367.4 361.087 1367.25 360.258 1367.09 359.36C1366.35 354.938 1364.76 350.862 1362.83 347.408C1362.19 346.251 1361.5 345.18 1360.79 344.178C1360.34 343.557 1359.89 342.952 1359.44 342.382C1359.17 342.054 1358.91 341.726 1358.63 341.415C1354.49 336.683 1350.23 334.818 1349.1 337.667C1348.97 338.03 1348.85 338.375 1348.74 338.686C1348.71 338.79 1348.69 338.894 1348.66 338.997C1348.6 339.204 1348.55 339.412 1348.5 339.602C1348.48 339.723 1348.45 339.826 1348.43 339.947C1348.4 340.102 1348.38 340.275 1348.36 340.413C1348.36 340.534 1348.33 340.655 1348.33 340.759C1348.33 340.897 1348.31 341.018 1348.31 341.156C1348.31 341.277 1348.31 341.398 1348.31 341.519C1348.31 341.622 1348.31 341.709 1348.31 341.812C1348.31 342.641 1348.41 343.419 1348.41 344.317C1348.41 345.888 1348.14 347.823 1346.65 351.052C1346.39 351.639 1346.12 352.175 1345.88 352.71C1342.79 359.083 1340.84 361.847 1349.71 368.772L1349.62 368.807C1349.62 368.807 1349.47 368.876 1349.36 368.911H1349.35C1348.28 369.342 1345.22 370.793 1343.36 373.833C1341.84 376.285 1341.13 379.774 1342.93 384.593C1343.06 384.99 1343.24 385.387 1343.41 385.784C1343.6 386.199 1343.79 386.579 1344 386.941C1344.2 387.304 1344.41 387.632 1344.63 387.926C1350.87 396.095 1365.31 384.783 1367.71 382.814L1363.1 393.47C1362.88 393.988 1363.1 394.575 1363.6 394.817C1364.1 395.059 1364.71 394.852 1364.97 394.351L1370.51 383.677C1370.51 383.677 1369.7 407.062 1382.09 405.249H1382.14C1382.56 405.18 1382.97 405.093 1383.4 404.972H1383.35Z" fill="#F6F6F6"/>
<path d="M582.807 170.851C583.877 169.158 584.516 167.604 584.896 166.171C584.896 166.171 584.896 166.205 584.896 166.222C584.947 166.015 584.965 165.842 585.016 165.635C585.086 165.359 585.155 165.065 585.189 164.789C585.224 164.547 585.224 164.305 585.258 164.063C585.293 163.511 585.293 162.958 585.258 162.457C585.258 162.285 585.258 162.112 585.224 161.956C585.189 161.68 585.12 161.438 585.068 161.179C585.034 161.006 584.999 160.817 584.947 160.661C584.878 160.419 584.792 160.195 584.706 159.953C584.637 159.798 584.585 159.625 584.516 159.469C584.412 159.245 584.326 159.038 584.205 158.83C584.136 158.675 584.05 158.537 583.964 158.399C583.843 158.209 583.739 158.001 583.601 157.829C583.515 157.708 583.428 157.587 583.342 157.466C583.204 157.293 583.083 157.103 582.945 156.948C582.859 156.844 582.79 156.775 582.704 156.672C582.41 156.343 582.134 156.05 581.84 155.773C581.771 155.704 581.685 155.635 581.616 155.566C581.478 155.445 581.357 155.342 581.219 155.238C581.133 155.169 581.029 155.083 580.943 155.013C580.822 154.927 580.719 154.841 580.598 154.754C580.511 154.685 580.408 154.616 580.322 154.564C580.218 154.495 580.132 154.444 580.045 154.374C579.959 154.323 579.89 154.271 579.804 154.219C579.735 154.167 579.666 154.133 579.614 154.098C579.545 154.046 579.493 154.029 579.424 153.994C579.389 153.977 579.355 153.96 579.32 153.943C579.251 153.908 579.217 153.891 579.217 153.891C588.589 148.606 587.14 145.704 585.12 139.262C584.947 138.727 584.775 138.174 584.619 137.587C583.67 134.323 583.687 132.458 583.912 130.972C584.033 130.126 584.222 129.401 584.361 128.623C584.361 128.537 584.395 128.433 584.412 128.347C584.412 128.226 584.447 128.123 584.447 128.002C584.447 127.881 584.464 127.76 584.481 127.622C584.481 127.518 584.481 127.397 584.481 127.294C584.481 127.138 584.481 126.983 584.481 126.827C584.481 126.724 584.481 126.603 584.481 126.499C584.481 126.309 584.447 126.119 584.43 125.912C584.43 125.808 584.412 125.705 584.395 125.601C584.395 125.584 584.395 125.549 584.395 125.532C584.343 125.238 584.292 124.927 584.205 124.582C583.428 121.231 577.629 123.425 572.226 129.072C571.691 129.642 571.156 130.23 570.621 130.869C569.568 132.129 568.55 133.528 567.617 135.031C567.151 135.791 566.703 136.568 566.288 137.38C566.081 137.777 565.874 138.191 565.684 138.606C565.097 139.85 564.562 141.162 564.131 142.527V142.561C563.906 143.183 563.717 143.753 563.527 144.323C563.475 144.461 563.44 144.599 563.389 144.737C563.199 145.273 563.026 145.791 562.853 146.292C562.819 146.378 562.802 146.464 562.767 146.533C562.612 146.965 562.456 147.38 562.318 147.777C562.284 147.863 562.249 147.967 562.215 148.053C562.059 148.485 561.904 148.882 561.749 149.262L561.645 149.521C561.507 149.849 561.369 150.178 561.248 150.471L561.196 150.609C561.058 150.938 560.92 151.231 560.799 151.507C560.765 151.577 560.73 151.646 560.696 151.715C560.575 151.991 560.454 152.25 560.333 152.475L560.299 152.544C560.195 152.751 560.092 152.958 559.988 153.131C559.971 153.183 559.936 153.235 559.919 153.269C559.816 153.459 559.712 153.632 559.626 153.787L559.557 153.891C559.47 154.029 559.401 154.15 559.315 154.254L559.263 154.323C559.177 154.444 559.108 154.547 559.022 154.651L558.97 154.72C558.901 154.806 558.832 154.893 558.763 154.962C558.763 154.962 558.625 155.1 558.573 155.152L558.538 155.186C558.538 155.186 558.435 155.273 558.383 155.307C558.383 155.307 558.297 155.359 558.245 155.376C558.245 155.376 558.159 155.411 558.124 155.411C558.003 155.428 557.934 155.376 557.917 155.376C558.435 154.599 558.625 153.615 558.331 152.665C558.089 151.87 557.554 151.248 556.881 150.851C558.452 148.589 560.765 144.599 560.868 140.523C560.868 140.247 560.661 140.022 560.385 140.022C560.109 140.022 559.885 140.229 559.885 140.506C559.781 144.409 557.434 148.364 555.932 150.488C555.414 150.368 554.862 150.368 554.309 150.54C553.636 150.748 553.084 151.162 552.687 151.68C550.322 150.817 545.886 148.83 543.521 145.514C543.366 145.29 543.055 145.238 542.831 145.394C542.606 145.549 542.555 145.86 542.71 146.084C545.213 149.59 549.683 151.646 552.204 152.561C551.979 153.183 551.945 153.874 552.152 154.564C552.445 155.514 553.153 156.222 554.016 156.585C554.016 156.62 553.999 156.671 553.981 156.706H553.964C553.964 156.706 553.861 156.741 553.792 156.741C553.774 156.741 553.757 156.741 553.722 156.741C553.671 156.741 553.602 156.741 553.515 156.741C553.481 156.741 553.446 156.741 553.395 156.723C553.325 156.723 553.239 156.689 553.136 156.672C553.084 156.672 553.049 156.654 552.998 156.637C552.877 156.602 552.756 156.551 552.618 156.499C552.583 156.499 552.549 156.482 552.514 156.464C552.324 156.395 552.134 156.309 551.893 156.205C551.841 156.188 551.789 156.153 551.737 156.119C551.548 156.032 551.358 155.929 551.151 155.825C551.064 155.773 550.978 155.722 550.874 155.67C550.667 155.566 550.443 155.428 550.219 155.29C550.115 155.238 550.029 155.169 549.925 155.117C549.614 154.927 549.286 154.737 548.941 154.513C548.907 154.495 548.872 154.461 548.82 154.444C548.423 154.184 547.992 153.908 547.526 153.597C547.405 153.511 547.284 153.425 547.163 153.338C546.818 153.096 546.438 152.837 546.059 152.561C545.886 152.44 545.713 152.319 545.541 152.181C545.161 151.905 544.747 151.594 544.333 151.283C544.16 151.145 543.987 151.024 543.797 150.886C543.176 150.419 542.537 149.936 541.847 149.4C538.464 146.775 534.718 144.944 531.128 143.77C529.937 143.373 528.746 143.062 527.607 142.82C526.882 142.665 526.191 142.544 525.501 142.44C525.087 142.371 524.69 142.319 524.293 142.285C518.32 141.646 514.109 143.096 515.162 145.825C515.3 146.171 515.438 146.482 515.576 146.775C515.628 146.879 515.679 146.965 515.714 147.052C515.8 147.224 515.904 147.414 515.99 147.57C516.042 147.673 516.111 147.76 516.163 147.863C516.249 148.001 516.335 148.122 516.422 148.243C516.491 148.33 516.56 148.433 516.629 148.52C516.715 148.623 516.784 148.71 516.87 148.813C516.94 148.9 517.026 148.986 517.095 149.072C517.164 149.141 517.216 149.21 517.285 149.28C517.837 149.849 518.389 150.35 518.976 150.972C519.995 152.077 521.048 153.614 522.083 156.844C522.273 157.431 522.446 157.984 522.601 158.519C524.552 164.996 524.966 168.209 535.702 167.328L535.668 167.414C535.668 167.414 535.599 167.569 535.547 167.673C535.081 168.692 533.855 171.697 534.511 175.031C535.029 177.725 536.79 180.644 541.174 182.872C541.536 183.044 541.899 183.234 542.296 183.407C542.693 183.58 543.072 183.718 543.452 183.839H543.469C543.832 183.96 544.194 184.046 544.557 184.098C554.223 185.79 557.054 168.485 557.468 165.549L561.127 176.032C561.3 176.533 561.852 176.809 562.353 176.654C562.871 176.499 563.164 175.963 563.026 175.445L560.005 164.357C560.005 164.357 574.574 181.334 582.099 172.008L582.134 171.974C582.376 171.663 582.617 171.335 582.859 170.972L582.807 170.851Z" fill="#F6F6F6"/>
<path d="M306.851 40.5451C309.008 43.1185 321.557 58.5069 322.938 70.0612C310.216 110.838 347.12 122.841 347.12 122.841C352.816 106.054 350.659 89.992 343.616 80.3893C339.042 74.1545 332.552 69.4395 328.513 66.8661C326.891 59.3705 322.144 51.2704 318.001 45.2774C319.986 46.0027 321.971 46.7109 324.042 47.3499C337.299 51.374 346.499 55.3636 352.954 58.9042C349.951 91.3046 403.391 103.74 403.391 103.74C402.286 97.4531 409.484 83.6535 392.827 66.3825C380.745 53.861 365.503 53.8783 358.012 54.8282C352.178 51.4086 344.169 47.6608 333.053 43.8784C335.141 43.4121 337.143 42.894 338.852 42.3413C377.102 61.3394 392.24 26.7456 392.24 26.7456C352.16 5.96856 338.404 29.129 334.986 37.1945C330.032 38.5244 323.317 39.5779 321.056 39.9061C306.454 34.7075 294.233 26.901 284.705 19.1809C288.243 18.9909 292.369 18.5073 296.149 17.402C328.358 30.6834 348.933 -6.58746 348.933 -6.58746C309.353 -28.5907 293.422 4.63871 290.315 12.5143C285.119 13.3606 279.906 13.2915 277.749 13.2051C266.961 3.27429 261.109 -5.10214 260.988 -5.27485L256 -1.8552C256.552 -1.04346 264.061 9.68182 277.731 21.3743C279.061 23.7404 284.998 34.6902 285.413 43.913C260.747 66.8488 298.22 109.318 298.22 109.318L301.931 83.0663C304.607 64.0855 296.287 50.8904 291.454 45.0183C291.471 39.8197 289.987 34.2412 288.209 29.5089C293.75 33.4295 299.998 37.1945 306.868 40.5278L306.851 40.5451Z" fill="#5B9739"/>
<path d="M1303.46 74.6977C1306.01 74.0069 1308.03 73.0743 1309.67 72.0207C1309.67 72.038 1309.65 72.0553 1309.64 72.0725C1309.86 71.9171 1310.05 71.7616 1310.28 71.6062C1310.59 71.3817 1310.91 71.1744 1311.21 70.9327C1311.47 70.7254 1311.69 70.5009 1311.92 70.2763C1312.45 69.7755 1312.93 69.2401 1313.35 68.7047C1313.49 68.532 1313.64 68.3593 1313.76 68.1866C1313.97 67.893 1314.12 67.5821 1314.3 67.2884C1314.42 67.0812 1314.54 66.874 1314.64 66.6667C1314.8 66.3731 1314.92 66.0623 1315.04 65.7686C1315.13 65.5614 1315.21 65.3368 1315.28 65.1296C1315.38 64.836 1315.47 64.5424 1315.56 64.2315C1315.61 64.0242 1315.66 63.817 1315.71 63.5925C1315.78 63.2989 1315.83 63.0052 1315.89 62.7116C1315.92 62.5044 1315.94 62.3144 1315.95 62.1071C1315.99 61.8135 1316.02 61.5372 1316.04 61.2609C1316.04 61.0882 1316.04 60.95 1316.04 60.7773C1316.04 60.2074 1316.04 59.6547 1316.01 59.1366C1316.01 58.9984 1316.01 58.8602 1315.97 58.7393C1315.95 58.4975 1315.92 58.273 1315.89 58.0657C1315.87 57.9103 1315.85 57.7549 1315.82 57.5994C1315.78 57.3922 1315.75 57.2195 1315.71 57.0468C1315.68 56.8913 1315.66 56.7531 1315.63 56.615C1315.59 56.4595 1315.56 56.3214 1315.52 56.1832C1315.49 56.045 1315.45 55.9414 1315.44 55.8205C1315.4 55.7169 1315.38 55.6133 1315.35 55.5269C1315.32 55.4233 1315.3 55.3369 1315.26 55.2678C1315.25 55.216 1315.23 55.1642 1315.21 55.1297C1315.18 55.0433 1315.16 54.9915 1315.16 54.9915C1328.99 58.2557 1330.18 54.1453 1333.99 46.0624C1334.3 45.3889 1334.63 44.698 1334.99 43.9899C1337 39.983 1338.67 38.1696 1340.22 36.9261C1341.1 36.2179 1341.93 35.6825 1342.76 35.0435C1342.86 34.9744 1342.95 34.8881 1343.05 34.819C1343.17 34.7326 1343.28 34.629 1343.4 34.5254C1343.52 34.4218 1343.64 34.3009 1343.76 34.18C1343.87 34.0763 1343.97 33.9727 1344.07 33.8691C1344.21 33.7309 1344.35 33.5755 1344.49 33.42C1344.59 33.3164 1344.68 33.1955 1344.78 33.0919C1344.94 32.9019 1345.09 32.6947 1345.25 32.4702C1345.33 32.3665 1345.4 32.2629 1345.49 32.142C1345.51 32.1075 1345.52 32.0902 1345.54 32.0729C1345.76 31.7448 1345.99 31.3821 1346.21 30.9848C1348.47 27.0298 1340.86 23.9728 1330.56 24.6118C1329.52 24.6809 1328.47 24.7845 1327.4 24.9227C1325.24 25.199 1323.01 25.6481 1320.75 26.2871C1319.63 26.598 1318.49 26.9607 1317.35 27.3752C1316.78 27.5824 1316.21 27.7897 1315.66 28.0315C1313.97 28.7223 1312.3 29.5168 1310.64 30.4321L1310.59 30.4667C1309.84 30.8812 1309.14 31.2784 1308.45 31.6411C1308.27 31.7275 1308.1 31.8311 1307.95 31.9175C1307.27 32.2802 1306.63 32.6256 1306.03 32.9365C1305.93 32.9883 1305.82 33.0401 1305.72 33.0919C1305.18 33.3682 1304.67 33.6273 1304.17 33.8863C1304.04 33.9382 1303.92 34.0072 1303.8 34.0591C1303.27 34.3354 1302.75 34.5772 1302.27 34.8017C1302.16 34.8535 1302.04 34.9054 1301.94 34.9572C1301.51 35.1644 1301.09 35.3544 1300.7 35.5271C1300.64 35.5616 1300.58 35.5789 1300.52 35.6134C1300.09 35.8034 1299.71 35.9762 1299.33 36.1316C1299.25 36.1661 1299.14 36.218 1299.06 36.2525C1298.69 36.4079 1298.35 36.5461 1298.02 36.667L1297.92 36.7015C1297.62 36.8051 1297.35 36.9088 1297.09 36.9952C1297.02 37.0124 1296.95 37.0469 1296.88 37.0642C1296.62 37.1506 1296.36 37.2369 1296.14 37.306C1296.09 37.306 1296.04 37.3406 1295.98 37.3578C1295.78 37.4096 1295.6 37.4614 1295.43 37.5133L1295.33 37.5478C1295.14 37.5996 1294.97 37.6342 1294.81 37.6515H1294.71C1294.55 37.686 1294.41 37.7032 1294.29 37.7205C1294.15 37.7205 1294.05 37.7205 1293.95 37.7205H1293.9C1293.79 37.7205 1293.71 37.7205 1293.64 37.686C1293.64 37.686 1293.5 37.6514 1293.45 37.6342C1293.45 37.6342 1293.34 37.5823 1293.31 37.5651C1293.17 37.4787 1293.15 37.3751 1293.15 37.3405C1294.34 37.0297 1295.4 36.2525 1295.97 35.0608C1296.45 34.0591 1296.48 32.9883 1296.19 32.0038C1299.73 31.2093 1305.55 29.4132 1309.31 25.5272C1309.55 25.2681 1309.55 24.8536 1309.31 24.6118C1309.05 24.3528 1308.64 24.37 1308.39 24.6118C1304.8 28.3251 1298.97 30.0522 1295.62 30.7776C1295.22 30.1904 1294.67 29.7068 1294 29.3786C1293.17 28.9814 1292.26 28.8778 1291.41 29.0332C1289.89 26.0626 1287.35 20.1905 1288.03 14.8365C1288.08 14.4738 1287.82 14.1629 1287.46 14.1111C1287.09 14.0593 1286.78 14.3183 1286.73 14.681C1286.02 20.3286 1288.54 26.3216 1290.15 29.465C1289.37 29.8795 1288.72 30.5185 1288.32 31.3648C1287.75 32.5565 1287.8 33.8691 1288.32 34.9917C1288.27 35.009 1288.23 35.0608 1288.18 35.078H1288.15C1288.15 35.078 1288.03 34.9917 1287.96 34.9226C1287.94 34.9226 1287.92 34.8881 1287.91 34.8708C1287.85 34.819 1287.78 34.7499 1287.72 34.6808C1287.68 34.6463 1287.65 34.5945 1287.63 34.5599C1287.56 34.4736 1287.51 34.3872 1287.44 34.2836C1287.4 34.2318 1287.37 34.18 1287.34 34.1282C1287.25 33.99 1287.16 33.8346 1287.08 33.6619C1287.06 33.61 1287.03 33.5755 1287.01 33.5237C1286.89 33.2819 1286.78 33.0228 1286.65 32.7119C1286.61 32.6428 1286.59 32.5565 1286.56 32.4874C1286.46 32.2456 1286.35 31.9693 1286.25 31.6757C1286.21 31.5548 1286.16 31.4166 1286.11 31.2957C1286.01 31.0021 1285.9 30.6912 1285.82 30.3458C1285.77 30.2076 1285.73 30.0522 1285.68 29.8967C1285.54 29.4477 1285.4 28.9641 1285.26 28.4287C1285.26 28.3596 1285.23 28.3251 1285.21 28.256C1285.06 27.6515 1284.88 26.9779 1284.73 26.2698C1284.69 26.0798 1284.64 25.8899 1284.59 25.6999C1284.47 25.1472 1284.33 24.5773 1284.21 23.9555C1284.16 23.6792 1284.09 23.4029 1284.04 23.1093C1283.92 22.4875 1283.78 21.8312 1283.66 21.1576C1283.61 20.864 1283.56 20.5877 1283.49 20.2768C1283.3 19.2751 1283.11 18.2388 1282.92 17.099C1281.99 11.5204 1279.98 6.39094 1277.53 2.02138C1276.72 0.570611 1275.86 -0.793816 1274.96 -2.07187C1274.41 -2.86634 1273.84 -3.60898 1273.25 -4.33437C1272.91 -4.76614 1272.56 -5.16339 1272.22 -5.56062C1266.99 -11.5364 1261.6 -13.9025 1260.18 -10.2929C1260.01 -9.82654 1259.86 -9.41204 1259.74 -8.99753C1259.7 -8.85936 1259.67 -8.73847 1259.63 -8.60031C1259.56 -8.34124 1259.49 -8.08217 1259.44 -7.84038C1259.41 -7.68494 1259.39 -7.54677 1259.36 -7.4086C1259.32 -7.20135 1259.29 -7.01138 1259.27 -6.82139C1259.25 -6.66596 1259.24 -6.52777 1259.22 -6.37233C1259.22 -6.19962 1259.2 -6.04419 1259.18 -5.87148C1259.18 -5.71605 1259.18 -5.5606 1259.18 -5.40516C1259.18 -5.28426 1259.18 -5.16338 1259.18 -5.04248C1259.2 -3.98895 1259.3 -3.0045 1259.3 -1.88189C1259.3 0.104277 1258.94 2.53949 1257.08 6.61544C1256.75 7.34082 1256.4 8.03168 1256.09 8.70524C1252.19 16.7363 1249.72 20.2423 1260.93 28.9814C1260.93 28.9814 1260.87 28.9814 1260.82 29.016H1260.81C1260.81 29.016 1260.62 29.085 1260.48 29.1541H1260.44C1259.1 29.7068 1255.23 31.5375 1252.88 35.3544C1250.98 38.4459 1250.07 42.85 1252.33 48.9467C1252.52 49.4475 1252.71 49.9484 1252.95 50.4665C1253.18 50.9846 1253.44 51.4682 1253.69 51.9346C1253.95 52.4009 1254.23 52.8154 1254.51 53.1781C1262.38 63.4889 1280.6 49.2058 1283.62 46.7187L1277.81 60.1728C1277.53 60.8118 1277.81 61.5718 1278.45 61.8827C1279.09 62.1935 1279.84 61.9345 1280.17 61.2955L1287.16 47.824C1287.16 47.824 1286.13 77.3402 1301.78 75.0432C1301.8 75.0432 1301.82 75.0432 1301.84 75.0432C1302.35 74.9568 1302.89 74.8532 1303.44 74.6977H1303.46Z" fill="#F6F6F6"/>
<path d="M1853.85 16.3674C1852.19 19.2862 1842.65 36.6954 1843.41 48.3187C1863.32 86.1077 1829.22 104.622 1829.22 104.622C1820.57 89.1474 1819.76 72.9645 1824.95 62.2392C1828.32 55.279 1833.84 49.4586 1837.35 46.1944C1837.59 38.5261 1840.78 29.7006 1843.75 23.0513C1841.94 24.1221 1840.11 25.1929 1838.19 26.1773C1825.89 32.5503 1817.57 38.1461 1811.87 42.8093C1820.71 74.1389 1770.41 96.073 1770.41 96.073C1770.36 89.6828 1760.76 77.4376 1774 57.4205C1783.6 42.8956 1798.6 40.1496 1806.14 39.7351C1811.27 35.2964 1818.45 30.1669 1828.7 24.4329C1826.56 24.3639 1824.51 24.2084 1822.73 23.9839C1788.57 49.614 1767.41 18.3708 1767.41 18.3708C1803.05 -9.34914 1820.78 10.927 1825.61 18.2327C1830.72 18.6472 1837.5 18.4572 1839.82 18.3708C1853.23 10.6161 1863.83 0.702594 1871.8 -8.62375C1868.28 -8.15743 1864.14 -7.89836 1860.22 -8.29559C1830.96 10.6162 1803.95 -22.2851 1803.95 -22.2851C1838.87 -51.1104 1860.56 -21.3352 1865.07 -14.1677C1870.33 -14.2886 1875.44 -15.3076 1877.55 -15.7739C1886.35 -27.5009 1890.6 -36.81 1890.67 -37L1896.19 -34.5475C1895.79 -33.6494 1890.36 -21.7324 1879.05 -7.74293C1878.17 -5.18683 1874.32 6.67835 1875.6 15.8147C1904.03 33.8802 1874.89 82.4635 1874.89 82.4635L1866.47 57.3169C1860.37 39.1478 1866.17 24.6575 1869.85 18.0081C1868.88 12.8959 1869.33 7.14466 1870.23 2.15334C1865.48 7.02376 1860.05 11.8597 1853.88 16.3847L1853.85 16.3674Z" fill="#5B9739"/>
<path d="M655.667 615.798C656.669 614.071 657.255 612.482 657.583 611.048C657.583 611.048 657.583 611.083 657.583 611.1C657.635 610.893 657.652 610.703 657.687 610.513C657.739 610.219 657.79 609.943 657.825 609.666C657.86 609.407 657.842 609.183 657.86 608.941C657.877 608.371 657.86 607.836 657.79 607.335C657.773 607.162 657.756 606.989 657.739 606.834C657.687 606.558 657.618 606.316 657.549 606.057C657.497 605.884 657.463 605.711 657.411 605.539C657.324 605.297 657.238 605.072 657.152 604.848C657.083 604.692 657.014 604.52 656.945 604.381C656.841 604.174 656.738 603.967 656.617 603.76C656.53 603.622 656.444 603.483 656.358 603.345C656.237 603.155 656.116 602.965 655.978 602.793C655.892 602.672 655.788 602.551 655.702 602.43C655.564 602.257 655.426 602.084 655.288 601.929C655.201 601.843 655.115 601.756 655.029 601.67C654.735 601.359 654.425 601.065 654.131 600.806C654.062 600.737 653.976 600.668 653.907 600.599C653.769 600.478 653.631 600.375 653.493 600.271C653.389 600.202 653.303 600.116 653.216 600.046C653.096 599.96 652.975 599.874 652.871 599.805C652.768 599.736 652.681 599.684 652.595 599.615C652.491 599.546 652.405 599.494 652.319 599.442C652.232 599.39 652.163 599.338 652.077 599.304C652.008 599.269 651.939 599.217 651.87 599.183C651.801 599.148 651.732 599.114 651.68 599.079C651.646 599.062 651.611 599.045 651.577 599.027C651.508 598.993 651.473 598.976 651.473 598.976C660.656 593.363 659.102 590.513 656.841 584.14C656.651 583.604 656.461 583.069 656.272 582.482C655.219 579.252 655.15 577.387 655.322 575.902C655.426 575.055 655.581 574.33 655.685 573.535C655.685 573.449 655.702 573.346 655.719 573.259C655.719 573.138 655.736 573.035 655.754 572.914C655.754 572.793 655.754 572.655 655.771 572.534C655.771 572.43 655.771 572.309 655.771 572.206C655.771 572.05 655.771 571.895 655.754 571.739C655.754 571.636 655.754 571.515 655.736 571.411C655.719 571.221 655.685 571.031 655.65 570.824C655.65 570.72 655.616 570.617 655.598 570.513C655.598 570.496 655.598 570.461 655.598 570.444C655.547 570.15 655.478 569.84 655.374 569.511C654.476 566.178 648.763 568.596 643.568 574.434C643.05 575.021 642.532 575.643 642.031 576.282C641.03 577.577 640.064 579.01 639.183 580.547C638.752 581.325 638.32 582.119 637.94 582.931C637.751 583.345 637.561 583.76 637.371 584.192C636.819 585.47 636.352 586.782 635.955 588.164V588.198C635.766 588.82 635.593 589.408 635.42 589.977C635.386 590.116 635.334 590.254 635.3 590.392C635.127 590.945 634.972 591.463 634.816 591.964C634.782 592.05 634.764 592.136 634.73 592.223C634.592 592.654 634.454 593.069 634.316 593.466C634.281 593.553 634.247 593.656 634.212 593.76C634.074 594.192 633.919 594.589 633.781 594.986L633.694 595.245C633.573 595.591 633.453 595.919 633.332 596.212L633.28 596.35C633.159 596.679 633.038 596.989 632.918 597.266C632.883 597.335 632.866 597.404 632.831 597.473C632.71 597.749 632.607 598.008 632.503 598.25L632.469 598.337C632.365 598.561 632.279 598.751 632.193 598.941C632.175 598.993 632.141 599.045 632.124 599.096C632.037 599.286 631.934 599.459 631.847 599.615C631.83 599.649 631.813 599.684 631.796 599.718C631.727 599.856 631.64 599.977 631.571 600.098L631.537 600.167C631.45 600.288 631.381 600.409 631.312 600.495L631.26 600.565C631.191 600.651 631.122 600.737 631.053 600.824C631.053 600.824 630.933 600.962 630.863 601.014L630.829 601.048C630.829 601.048 630.725 601.134 630.674 601.169C630.674 601.169 630.587 601.238 630.536 601.255C630.536 601.255 630.449 601.29 630.415 601.29C630.294 601.307 630.225 601.273 630.208 601.255C630.691 600.461 630.846 599.477 630.518 598.527C630.242 597.732 629.69 597.128 629.017 596.765C630.501 594.451 632.659 590.375 632.624 586.281C632.624 586.005 632.4 585.798 632.124 585.798C631.847 585.798 631.64 586.022 631.64 586.299C631.692 590.202 629.483 594.243 628.067 596.42C627.532 596.316 626.98 596.35 626.445 596.54C625.789 596.765 625.254 597.197 624.874 597.732C622.475 596.955 617.987 595.141 615.501 591.912C615.329 591.705 615.035 591.653 614.811 591.825C614.604 591.998 614.552 592.292 614.725 592.516C617.348 595.936 621.905 597.819 624.442 598.648C624.253 599.287 624.235 599.977 624.477 600.651C624.805 601.601 625.53 602.274 626.41 602.603C626.41 602.637 626.41 602.689 626.393 602.723H626.376C626.376 602.723 626.272 602.758 626.203 602.758C626.186 602.758 626.169 602.758 626.134 602.758C626.082 602.758 626.013 602.758 625.927 602.758C625.892 602.758 625.858 602.758 625.806 602.758C625.737 602.758 625.651 602.723 625.547 602.706C625.495 602.706 625.461 602.689 625.409 602.672C625.288 602.637 625.167 602.603 625.029 602.551C624.995 602.551 624.96 602.533 624.926 602.516C624.736 602.447 624.529 602.361 624.304 602.274C624.253 602.257 624.201 602.223 624.149 602.205C623.959 602.119 623.769 602.033 623.545 601.929C623.459 601.894 623.355 601.843 623.269 601.791C623.062 601.687 622.837 601.566 622.595 601.445C622.492 601.394 622.388 601.342 622.285 601.273C621.974 601.1 621.646 600.91 621.284 600.703C621.249 600.686 621.215 600.651 621.163 600.634C620.749 600.392 620.317 600.116 619.851 599.822C619.73 599.753 619.592 599.666 619.471 599.58C619.109 599.356 618.729 599.114 618.332 598.837C618.159 598.717 617.97 598.596 617.797 598.475C617.4 598.216 616.986 597.922 616.554 597.629C616.364 597.508 616.192 597.387 616.002 597.249C615.363 596.817 614.707 596.35 614 595.832C610.53 593.345 606.715 591.635 603.073 590.599C601.865 590.254 600.674 589.977 599.518 589.77C598.793 589.649 598.085 589.546 597.395 589.459C596.98 589.408 596.583 589.373 596.186 589.338C590.197 588.924 586.037 590.513 587.193 593.207C587.349 593.553 587.487 593.863 587.642 594.14C587.694 594.243 587.746 594.312 587.798 594.416C587.901 594.589 587.987 594.762 588.091 594.917C588.16 595.021 588.212 595.107 588.281 595.193C588.367 595.314 588.453 595.452 588.54 595.556C588.609 595.642 588.678 595.729 588.747 595.815C588.833 595.919 588.902 596.005 588.989 596.091C589.075 596.178 589.144 596.264 589.23 596.35C589.299 596.42 589.368 596.489 589.437 596.54C590.007 597.093 590.594 597.559 591.198 598.181C592.251 599.252 593.356 600.755 594.529 603.932C594.736 604.502 594.926 605.055 595.099 605.573C597.274 611.981 597.826 615.176 608.511 613.898L608.476 613.984C608.476 613.984 608.407 614.14 608.373 614.243C607.941 615.279 606.836 618.319 607.613 621.635C608.234 624.312 610.099 627.162 614.552 629.234C614.914 629.407 615.294 629.563 615.691 629.718C616.088 629.873 616.485 630.012 616.865 630.115H616.882C617.262 630.219 617.624 630.288 617.97 630.34C627.687 631.687 629.88 614.278 630.19 611.324L634.229 621.652C634.419 622.153 634.972 622.412 635.472 622.222C635.973 622.05 636.249 621.497 636.094 620.996L632.676 610.029C632.676 610.029 647.848 626.454 655.046 616.868L655.081 616.834C655.322 616.523 655.547 616.178 655.754 615.798H655.667Z" fill="#F6F6F6"/>
</g>
<defs>
<clipPath id="clip0_126_494">
<rect width="1920" height="946" fill="white"/>
</clipPath>
</defs>
</svg>
