<svg width="90" height="90" viewBox="0 0 90 90" fill="none" xmlns="http://www.w3.org/2000/svg">
<rect width="90" height="90" rx="45" fill="#3FAA35"/>
<path d="M38.687 48.6243V41.9448H57.1756V48.6243H38.687ZM43.6031 26C46.4173 26 49 26.4848 51.3511 27.4544C53.7023 28.3881 55.7506 29.7348 57.4962 31.4945C59.2417 33.2541 60.5954 35.3191 61.5573 37.6892C62.5191 40.0594 63 42.663 63 45.5C63 48.337 62.5191 50.9406 61.5573 53.3108C60.5954 55.6809 59.2417 57.7459 57.4962 59.5055C55.7506 61.2652 53.7023 62.6298 51.3511 63.5994C49 64.5331 46.4173 65 43.6031 65C40.2901 65 37.2977 64.4254 34.626 63.2762C31.9898 62.1271 29.7812 60.4572 28 58.2666L33.5038 53.0953C34.8219 54.6036 36.2824 55.7348 37.8855 56.4889C39.4886 57.2072 41.2519 57.5663 43.1756 57.5663C44.7786 57.5663 46.257 57.279 47.6107 56.7044C49 56.0939 50.1756 55.268 51.1374 54.2265C52.1349 53.1492 52.883 51.8743 53.3817 50.4019C53.916 48.9296 54.1832 47.2956 54.1832 45.5C54.1832 43.7044 53.916 42.0704 53.3817 40.5981C52.883 39.1257 52.1349 37.8688 51.1374 36.8273C50.1756 35.75 49 34.924 47.6107 34.3494C46.257 33.739 44.7786 33.4337 43.1756 33.4337C41.2519 33.4337 39.4886 33.8108 37.8855 34.5649C36.2824 35.2831 34.8219 36.3964 33.5038 37.9047L28 32.7334C29.7812 30.5428 31.9898 28.8729 34.626 27.7238C37.2977 26.5746 40.2901 26 43.6031 26Z" fill="white"/>
</svg>
