<svg width="1920" height="850" viewBox="0 0 1920 850" fill="none" xmlns="http://www.w3.org/2000/svg">
<g clip-path="url(#clip0_98_10)">
<mask id="mask0_98_10" style="mask-type:luminance" maskUnits="userSpaceOnUse" x="0" y="0" width="1920" height="850">
<path d="M1920 0H0V850H1920V0Z" fill="white"/>
</mask>
<g mask="url(#mask0_98_10)">
<mask id="mask1_98_10" style="mask-type:luminance" maskUnits="userSpaceOnUse" x="0" y="0" width="1920" height="850">
<path d="M1920 0H0V850H1920V0Z" fill="white"/>
</mask>
<g mask="url(#mask1_98_10)">
<path d="M1515.2 389.893L1712.78 284.799L1676.76 247.58C1663.95 234.35 1643.95 231.19 1627.7 239.843L1527.45 293.158C1511.45 301.673 1502.75 319.531 1505.91 337.389L1515.2 389.91V389.893Z" fill="#B1D000"/>
<path d="M1535.91 435.765L1662.23 632.499C1667.99 641.497 1679.69 644.554 1689.14 639.528L1825.96 566.748C1834.04 562.448 1837.44 552.655 1833.77 544.279L1737.19 323.814L1535.91 435.748V435.765Z" fill="#B1D000"/>
<path d="M1648.57 467.112L1639.15 466.905C1638.51 466.905 1638.22 467.664 1638.68 468.096L1657.86 485.194C1658.08 485.402 1658.43 485.419 1658.69 485.246L1680.66 470.324C1681.18 469.961 1680.97 469.15 1680.35 469.081L1671.62 468.2C1671.31 468.165 1671.05 467.941 1671.01 467.613C1670.62 464.158 1668.72 444.729 1674.02 436.318C1674.4 435.73 1673.76 435.04 1673.14 435.368L1657.41 443.727C1653.96 445.557 1651.61 448.96 1651.09 452.829L1649.26 466.525C1649.21 466.87 1648.92 467.129 1648.57 467.112Z" fill="white"/>
<path d="M1674.93 449.374C1674.38 449.046 1674.07 448.442 1674.1 447.803C1674.27 444.504 1675.38 434.28 1682.21 431.81C1688.93 429.392 1697.49 436.68 1700.41 439.426C1701.01 439.996 1701.12 440.912 1700.67 441.62L1690.83 457.146C1690.31 457.958 1689.26 458.2 1688.45 457.699L1674.95 449.374H1674.93Z" fill="white"/>
<path d="M1722.42 453.416L1727.54 445.506C1727.89 444.97 1727.39 444.297 1726.78 444.487L1702.17 451.793C1701.87 451.879 1701.67 452.155 1701.69 452.466L1702.79 479.012C1702.82 479.651 1703.62 479.892 1704.02 479.392L1709.37 472.414C1709.56 472.155 1709.9 472.069 1710.18 472.207C1713.32 473.692 1730.84 482.31 1735.21 491.239C1735.52 491.861 1736.43 491.689 1736.48 490.998L1737.66 473.226C1737.92 469.323 1736.28 465.54 1733.26 463.053L1722.59 454.297C1722.33 454.072 1722.26 453.692 1722.45 453.399L1722.42 453.416Z" fill="white"/>
<path d="M1723.59 485.177C1724.16 484.884 1724.83 484.935 1725.37 485.298C1728.08 487.181 1736.19 493.502 1734.69 500.617C1733.22 507.595 1722.5 511.049 1718.64 512.085C1717.82 512.293 1717 511.895 1716.63 511.153L1708.62 494.607C1708.21 493.744 1708.55 492.707 1709.42 492.293L1723.61 485.194L1723.59 485.177Z" fill="white"/>
<path d="M1697.2 522.293L1701.62 530.617C1701.91 531.17 1702.74 531.066 1702.88 530.445L1708.4 505.35C1708.47 505.039 1708.31 504.728 1708.04 504.59L1684.29 492.707C1683.72 492.431 1683.11 493.001 1683.35 493.588L1686.88 501.637C1687 501.93 1686.93 502.258 1686.67 502.448C1683.84 504.486 1667.84 515.643 1657.91 515.142C1657.22 515.108 1656.93 515.989 1657.51 516.369L1672.48 526.006C1675.78 528.113 1679.87 528.51 1683.51 527.077L1696.33 521.982C1696.66 521.861 1697.02 521.982 1697.18 522.293H1697.2Z" fill="white"/>
<path d="M1668.85 507.958C1668.82 508.597 1668.46 509.167 1667.89 509.443C1664.92 510.911 1655.48 514.952 1649.97 510.168C1644.57 505.505 1646.74 494.452 1647.71 490.566C1647.92 489.754 1648.66 489.219 1649.49 489.271L1667.84 490.272C1668.79 490.324 1669.53 491.136 1669.49 492.086L1668.84 507.94L1668.85 507.958Z" fill="white"/>
<path d="M1757.9 318.495L1517.87 446.162L1498.09 408.909C1495.68 404.366 1497.4 398.719 1501.94 396.318L1725.52 277.39C1730.06 274.972 1735.71 276.699 1738.11 281.241L1757.89 318.495H1757.9Z" fill="#B1D000"/>
<path d="M1541.74 311.883L1633.93 262.861C1638.68 260.332 1644.59 262.139 1647.12 266.898L1660.51 292.107C1661.36 293.709 1660.75 295.694 1659.15 296.545L1554.83 352.019C1553.23 352.871 1551.25 352.263 1550.4 350.662L1537.38 326.154C1534.65 321.014 1536.61 314.615 1541.74 311.883Z" fill="#224C23"/>
<path d="M1543.34 318.377L1638.31 267.871C1642.32 265.739 1647.32 267.268 1649.45 271.279L1660.76 292.569C1661.47 293.912 1660.96 295.593 1659.61 296.306L1554.4 352.259C1553.06 352.973 1551.38 352.458 1550.66 351.116L1539.67 330.421C1537.36 326.074 1539.01 320.679 1543.36 318.369L1543.34 318.377Z" fill="#3C643E"/>
<path d="M1746.39 344.816L1545.84 451.482L1536.29 436.49L1739.26 328.529L1746.39 344.816Z" fill="#AABC02"/>
<path d="M1562.99 364.47L1519.1 387.821" stroke="#89960B" stroke-width="0.67" stroke-miterlimit="10" stroke-linecap="round"/>
<path d="M1709.33 286.63L1580.41 355.196" stroke="#89960B" stroke-width="0.67" stroke-miterlimit="10" stroke-linecap="round"/>
<path d="M1722.43 287.2L1632.26 335.161" stroke="#89960B" stroke-width="0.67" stroke-miterlimit="10" stroke-linecap="round"/>
<path d="M1663.12 328.028L1588.54 367.7" stroke="#89960B" stroke-width="0.67" stroke-miterlimit="10" stroke-linecap="round"/>
<path d="M1631.38 248.392C1631.38 248.392 1656.1 229.169 1689.24 276.509" stroke="#89960B" stroke-width="0.67" stroke-miterlimit="10" stroke-linecap="round"/>
<path d="M1758.15 406.007L1818.02 536.61" stroke="#89960B" stroke-width="0.67" stroke-miterlimit="10" stroke-linecap="round"/>
<path d="M1727.65 595.988L1804.63 555.038" stroke="#89960B" stroke-width="0.67" stroke-miterlimit="10" stroke-linecap="round"/>
<path d="M1690.64 600.202L1770.4 557.767" stroke="#89960B" stroke-width="0.67" stroke-miterlimit="10" stroke-linecap="round"/>
<path d="M1337.07 -325.608C1337.07 -325.608 1361.83 -181.378 1287.71 -117.492C1228.33 -66.3185 1228.73 -30.7402 1243.76 -12.8475C1267.05 14.8725 1360.7 -43.8489 1382.16 -224.435C1403.61 -405.02 1337.09 -325.591 1337.09 -325.591L1337.07 -325.608Z" fill="#5B9739"/>
<path d="M1421.86 -82.5364C1421.86 -82.5364 1427.28 -125.956 1452.19 -135.852C1477.1 -145.749 1505.89 -96.2842 1502.75 -115.403C1499.6 -134.522 1463.6 -147.873 1463.6 -147.873C1463.6 -147.873 1465.12 -160.653 1501.54 -171.759C1537.96 -182.847 1555.94 -116.008 1555.94 -116.008C1670.75 -107.39 1613.92 -37.4591 1604.95 -32.416C1595.97 -27.3729 1569.17 -72.6574 1566.06 -66.578C1562.95 -60.5159 1589.88 -42.0187 1595.7 -24.7131C1601.51 -7.40753 1566.99 33.1102 1553.1 35.9944C1539.2 38.8787 1549.64 -17.7702 1536.7 -10.2573C1523.75 -2.74436 1563.14 42.402 1512.57 57.1169C1461.99 71.8318 1468.79 71.7282 1490.46 33.9737C1512.12 -3.76336 1484.16 -22.157 1484.12 -0.0846405C1483.98 81.5899 1406.05 68.6712 1406.05 68.6712C1391.9 -20.8444 1467.36 -20.8617 1461.06 -30.2226C1454.78 -39.5662 1401.53 13.7494 1406.12 -4.7478C1410.71 -23.2451 1387.08 -34.5749 1404.5 -60.6023C1421.93 -86.6297 1483.26 -67.977 1480.51 -87.5968C1477.77 -107.217 1421.86 -82.5537 1421.86 -82.5537V-82.5364ZM1544.31 -31.6043C1548.33 -17.4938 1558.22 -9.6873 1564.13 -15.0241C1570.03 -20.3608 1555.01 -45.1275 1555.01 -45.1275C1546.73 -51.8631 1540.27 -45.7147 1544.31 -31.6043ZM1468.22 -53.8838C1484.88 -49.6179 1491.01 -51.8286 1495.48 -55.421C1495.48 -55.421 1482.67 -66.5953 1471.3 -63.6938C1459.9 -60.7922 1451.57 -58.167 1468.22 -53.8838ZM1517.26 -123.244C1524.58 -117.182 1530.57 -108.84 1533.82 -116.82C1533.82 -116.82 1531.66 -133.192 1521.72 -134.712C1511.76 -136.232 1509.94 -129.307 1517.26 -123.244Z" fill="#A4CA62"/>
<path d="M-29.1336 253.552C-29.1336 253.552 -69.4458 270.568 -90.4699 253.946C-111.494 237.324 -83.0525 187.658 -98.0393 199.938C-113.026 212.218 -106.584 250.075 -106.584 250.075C-106.584 250.075 -118.412 255.15 -146.24 229.162C-174.053 203.165 -125.161 154.169 -125.161 154.169C-175.099 50.4384 -86.1265 64.6832 -77.2712 69.9348C-68.4159 75.1864 -94.2304 121.044 -87.412 120.695C-80.6085 120.354 -78.0529 87.7862 -65.9744 74.0958C-53.8958 60.4054 -1.54545 70.0433 7.8999 80.6346C17.3452 91.2259 -36.9356 110.507 -23.9564 117.961C-10.9772 125.416 8.42605 68.7308 46.4567 105.172C84.4874 141.613 80.9973 135.776 37.4698 135.893C-6.04275 136.001 -7.99075 169.414 11.1417 158.408C81.943 117.69 109.722 191.641 109.722 191.641C39.2757 248.657 1.52849 183.311 -3.42815 193.448C-8.37847 203.561 64.4191 223.019 46.1043 228.291C27.7895 233.563 29.7927 259.693 -1.4558 257.623C-32.713 255.539 -47.2232 193.101 -62.8423 205.288C-78.4613 217.475 -29.1485 253.561 -29.1485 253.561L-29.1336 253.552ZM-46.2494 122.043C-36.0404 111.504 -34.225 99.0358 -41.7983 96.5918C-49.3717 94.1478 -63.3117 119.536 -63.3117 119.536C-65.0024 130.079 -56.4499 132.596 -46.2494 122.043ZM-27.5011 199.075C-32.1351 182.517 -37.1134 178.315 -42.4598 176.24C-42.4598 176.24 -45.7332 192.919 -37.5329 201.319C-29.324 209.734 -22.8821 215.642 -27.5011 199.075ZM-112.088 191.287C-110.497 181.918 -106.267 172.56 -114.8 173.739C-114.8 173.739 -127.901 183.794 -124.246 193.164C-120.582 202.549 -113.678 200.656 -112.088 191.287Z" fill="#A4CA62"/>
<path d="M548.462 461.11L539.901 452.008C539.331 451.403 538.296 451.835 538.348 452.664L540.022 486.723C540.039 487.137 540.333 487.483 540.747 487.569L575.303 494.495C576.132 494.667 576.701 493.7 576.183 493.044L568.882 483.959C568.623 483.631 568.606 483.165 568.882 482.837C571.782 479.244 588.404 459.383 601.264 456.55C602.161 456.36 602.23 455.117 601.35 454.84L578.824 447.742C573.87 446.188 568.485 447.103 564.325 450.229L549.688 461.231C549.325 461.507 548.808 461.455 548.497 461.127L548.462 461.11Z" fill="#3C643E"/>
<path d="M589.75 469.573C589.56 468.744 589.819 467.897 590.458 467.327C593.755 464.409 604.422 455.963 613.139 460.143C621.683 464.236 622.753 479.141 622.857 484.443C622.874 485.548 622.115 486.498 621.027 486.723L597.19 491.852C595.947 492.111 594.722 491.334 594.445 490.108L589.768 469.573H589.75Z" fill="#3C643E"/>
<path d="M630.089 518.277L642.344 515.79C643.173 515.617 643.328 514.529 642.603 514.114L612.794 497.603C612.431 497.396 611.983 497.482 611.706 497.776L587.627 523.527C587.058 524.149 587.558 525.133 588.404 525.03L599.969 523.596C600.383 523.544 600.78 523.769 600.918 524.183C602.437 528.553 610.584 553.13 606.2 565.565C605.889 566.446 606.908 567.136 607.615 566.532L625.515 551.109C629.451 547.724 631.505 542.646 631.038 537.482L629.399 519.227C629.364 518.778 629.675 518.346 630.124 518.259L630.089 518.277Z" fill="#3C643E"/>
<path d="M601.177 548.95C601.988 549.226 602.558 549.9 602.713 550.746C603.455 555.081 605.026 568.605 596.879 573.82C588.905 578.933 575.683 571.99 571.109 569.295C570.159 568.725 569.762 567.586 570.142 566.532L578.341 543.544C578.772 542.353 580.067 541.714 581.275 542.128L601.177 548.95Z" fill="#3C643E"/>
<path d="M541.506 558.484L537.761 570.418C537.502 571.212 538.382 571.903 539.09 571.454L567.95 553.337C568.295 553.112 568.45 552.681 568.33 552.301L557.473 518.76C557.214 517.966 556.092 517.914 555.781 518.709L551.431 529.538C551.276 529.935 550.879 530.159 550.465 530.09C545.925 529.313 520.465 524.529 511.714 514.684C511.092 513.994 509.988 514.546 510.178 515.462L514.993 538.588C516.046 543.665 519.499 547.931 524.245 550.021L541.006 557.43C541.42 557.62 541.644 558.086 541.506 558.518V558.484Z" fill="#3C643E"/>
<path d="M528.681 518.329C528.043 518.899 527.18 519.089 526.368 518.795C522.226 517.344 509.625 512.163 509.021 502.526C508.417 493.078 520.879 484.857 525.454 482.163C526.403 481.61 527.611 481.818 528.336 482.647L544.458 500.954C545.304 501.904 545.217 503.355 544.268 504.201L528.664 518.329H528.681Z" fill="#3C643E"/>
<path d="M299.656 204.365C322.268 210.358 342.291 224.278 355.806 243.397C390.483 292.482 367.354 347.317 345.847 374.018C320.542 405.434 261.993 419.372 241.09 421.807C220.204 424.242 217.115 436.228 217.115 436.228L192.276 418.957L167.438 401.686C167.438 401.686 177.587 394.605 172.582 374.173C167.576 353.725 160.206 293.95 180.798 259.269C198.3 229.788 241.608 188.959 299.674 204.365H299.656Z" fill="#F6F6F6"/>
<path d="M217.115 436.228L197.8 464.034C189.584 475.865 173.393 478.853 161.656 470.684L154.475 465.692C142.738 457.523 139.872 441.323 148.089 429.475L167.403 401.669L217.115 436.228Z" fill="#B1D000"/>
<path d="M154.731 416.477L210.008 450.637C211.273 451.419 212.932 451.026 213.714 449.76L215.047 447.6C215.829 446.334 215.436 444.674 214.171 443.892L158.894 409.732C157.629 408.95 155.969 409.343 155.188 410.609L153.855 412.769C153.073 414.035 153.465 415.695 154.731 416.477Z" fill="#5B9739"/>
<path d="M146.437 430.48L199.453 463.242C200.718 464.024 202.377 463.632 203.159 462.366L204.492 460.205C205.273 458.939 204.881 457.279 203.616 456.497L150.6 423.735C149.335 422.953 147.676 423.346 146.894 424.612L145.561 426.772C144.78 428.038 145.172 429.698 146.437 430.48Z" fill="#5B9739"/>
<path d="M140.291 444.984L189.283 475.259C190.548 476.041 192.207 475.649 192.989 474.383L194.322 472.223C195.103 470.957 194.711 469.297 193.446 468.515L144.454 438.239C143.189 437.457 141.53 437.85 140.748 439.116L139.415 441.276C138.634 442.542 139.026 444.202 140.291 444.984Z" fill="#5B9739"/>
<path d="M211.177 359.476C205.878 343.345 192.363 286.955 248.357 252.689C250.463 251.411 253.207 252.257 254.157 254.537C260.802 270.254 279.323 327.214 216.925 361.704C214.715 362.93 211.936 361.876 211.16 359.476H211.177Z" fill="#B1D000"/>
<path d="M192.259 418.957C192.259 418.957 207.794 386.591 214.284 358.94L250.739 257.404" stroke="#5B9739" stroke-width="0.5" stroke-miterlimit="10" stroke-linecap="round"/>
<path d="M253.259 276.938C253.259 276.938 239.986 291.687 235.584 299.545" stroke="#5B9739" stroke-width="0.5" stroke-miterlimit="10" stroke-linecap="round"/>
<path d="M226.073 284.174C226.073 284.174 233.237 301.238 229.025 317.611" stroke="#5B9739" stroke-width="0.5" stroke-miterlimit="10" stroke-linecap="round"/>
<path d="M252.016 315.193C252.016 315.193 232.615 319.804 223.432 333.759" stroke="#5B9739" stroke-width="0.5" stroke-miterlimit="10" stroke-linecap="round"/>
<path d="M215.25 313.155C215.25 313.155 222.414 330.219 218.202 346.592" stroke="#5B9739" stroke-width="0.5" stroke-miterlimit="10" stroke-linecap="round"/>
<path d="M221.188 371.065C230.13 362.654 262.977 336.54 302.539 362.826C304.023 363.811 304.3 365.883 303.109 367.196C294.841 376.367 263.167 405.917 221.499 375.521C220.032 374.45 219.859 372.308 221.188 371.047V371.065Z" fill="#B1D000"/>
<path d="M300.174 365.814L222.483 372.93C222.483 372.93 214.232 373.016 201.131 398.923" stroke="#5B9739" stroke-width="0.5" stroke-miterlimit="10" stroke-linecap="round"/>
<path d="M288.143 373.448C288.143 373.448 274.421 369.251 267.931 368.768" stroke="#5B9739" stroke-width="0.5" stroke-miterlimit="10" stroke-linecap="round"/>
<path d="M275.094 357.818C275.094 357.818 266.101 367.731 254.088 369.976" stroke="#5B9739" stroke-width="0.5" stroke-miterlimit="10" stroke-linecap="round"/>
<path d="M262.701 384.329C262.701 384.329 253.742 372.999 241.798 371.255" stroke="#5B9739" stroke-width="0.5" stroke-miterlimit="10" stroke-linecap="round"/>
<path d="M252.793 359.579C252.793 359.579 243.8 369.493 231.787 371.738" stroke="#5B9739" stroke-width="0.5" stroke-miterlimit="10" stroke-linecap="round"/>
<path d="M337.855 355.296C332.625 362.187 326.014 369.078 317.746 375.849" stroke="#5B9739" stroke-width="0.5" stroke-miterlimit="10" stroke-linecap="round"/>
<path d="M353.182 324.122C351.197 332.032 347.849 340.201 342.636 348.422" stroke="#5B9739" stroke-width="0.5" stroke-miterlimit="10" stroke-linecap="round"/>
<path d="M343.136 257.732C343.136 257.732 357.083 274.882 355.426 308.958" stroke="#5B9739" stroke-width="0.5" stroke-miterlimit="10" stroke-linecap="round"/>
<path d="M337.354 283C339.339 291.532 339.84 301.272 337.699 312.084" stroke="#5B9739" stroke-width="0.5" stroke-miterlimit="10" stroke-linecap="round"/>
<path d="M312.654 242.914C312.654 242.914 323.287 251.204 331.054 266.109" stroke="#5B9739" stroke-width="0.5" stroke-miterlimit="10" stroke-linecap="round"/>
<path d="M1383.35 404.972C1385.37 404.42 1386.97 403.694 1388.27 402.848C1388.27 402.848 1388.27 402.883 1388.23 402.9C1388.42 402.779 1388.56 402.658 1388.74 402.537C1388.98 402.365 1389.24 402.192 1389.46 402.002C1389.67 401.829 1389.84 401.656 1390.03 401.484C1390.46 401.087 1390.84 400.672 1391.17 400.24C1391.27 400.102 1391.39 399.964 1391.5 399.826C1391.65 399.584 1391.79 399.359 1391.93 399.118C1392.02 398.962 1392.12 398.789 1392.2 398.634C1392.33 398.392 1392.43 398.168 1392.52 397.926C1392.58 397.753 1392.65 397.58 1392.71 397.425C1392.79 397.183 1392.86 396.959 1392.91 396.717C1392.96 396.544 1393 396.389 1393.03 396.216C1393.09 395.974 1393.14 395.75 1393.17 395.525C1393.19 395.37 1393.21 395.214 1393.22 395.059C1393.24 394.834 1393.28 394.61 1393.29 394.385C1393.29 394.247 1393.29 394.126 1393.29 394.005C1393.29 393.556 1393.29 393.107 1393.26 392.693C1393.26 392.589 1393.26 392.468 1393.24 392.382C1393.22 392.192 1393.19 392.019 1393.17 391.847C1393.15 391.726 1393.14 391.587 1393.12 391.484C1393.1 391.328 1393.07 391.19 1393.03 391.052C1393.02 390.931 1392.98 390.828 1392.96 390.707C1392.93 390.586 1392.91 390.482 1392.88 390.361C1392.84 390.258 1392.83 390.171 1392.81 390.085C1392.79 389.999 1392.76 389.929 1392.74 389.86C1392.71 389.774 1392.69 389.705 1392.67 389.653C1392.67 389.601 1392.64 389.567 1392.64 389.532C1392.62 389.463 1392.6 389.429 1392.6 389.429C1403.56 392.019 1404.49 388.755 1407.52 382.365C1407.76 381.829 1408.03 381.294 1408.31 380.724C1409.9 377.546 1411.23 376.113 1412.45 375.128C1413.14 374.576 1413.82 374.144 1414.47 373.643C1414.56 373.591 1414.63 373.522 1414.71 373.453C1414.8 373.384 1414.9 373.297 1414.99 373.211C1415.09 373.125 1415.18 373.038 1415.28 372.935C1415.37 372.848 1415.46 372.779 1415.52 372.693C1415.63 372.589 1415.73 372.468 1415.85 372.33C1415.92 372.244 1416.01 372.158 1416.08 372.071C1416.2 371.916 1416.32 371.743 1416.46 371.57C1416.53 371.484 1416.58 371.398 1416.65 371.311C1416.65 371.294 1416.68 371.277 1416.7 371.259C1416.87 371 1417.04 370.707 1417.23 370.396C1419.01 367.27 1412.99 364.835 1404.82 365.353C1404.01 365.405 1403.17 365.491 1402.32 365.595C1400.61 365.819 1398.85 366.165 1397.06 366.665C1396.16 366.907 1395.26 367.201 1394.36 367.529C1393.91 367.684 1393.46 367.857 1393.02 368.047C1391.67 368.583 1390.34 369.221 1389.05 369.947H1389.01C1388.42 370.292 1387.86 370.603 1387.32 370.897C1387.18 370.966 1387.04 371.035 1386.92 371.121C1386.39 371.398 1385.89 371.674 1385.4 371.933C1385.32 371.985 1385.25 372.019 1385.16 372.054C1384.73 372.278 1384.33 372.486 1383.94 372.676C1383.85 372.728 1383.75 372.779 1383.66 372.814C1383.23 373.021 1382.83 373.228 1382.45 373.401C1382.37 373.436 1382.28 373.487 1382.19 373.522C1381.85 373.677 1381.52 373.833 1381.21 373.971L1381.07 374.04C1380.74 374.196 1380.42 374.334 1380.12 374.455C1380.05 374.489 1379.97 374.524 1379.9 374.541C1379.6 374.662 1379.33 374.765 1379.07 374.869L1378.98 374.904C1378.76 374.99 1378.53 375.076 1378.33 375.145C1378.28 375.163 1378.22 375.18 1378.17 375.197C1377.96 375.266 1377.76 375.335 1377.58 375.387C1377.55 375.387 1377.5 375.405 1377.46 375.422C1377.31 375.474 1377.15 375.508 1377.02 375.543H1376.93C1376.77 375.595 1376.64 375.629 1376.51 375.646H1376.43C1376.31 375.681 1376.19 375.698 1376.1 375.698C1376 375.698 1375.91 375.698 1375.82 375.698H1375.77C1375.77 375.698 1375.62 375.698 1375.57 375.681C1375.57 375.681 1375.46 375.646 1375.41 375.629C1375.41 375.629 1375.32 375.594 1375.31 375.56C1375.2 375.491 1375.19 375.405 1375.17 375.387C1376.12 375.145 1376.95 374.524 1377.41 373.574C1377.79 372.779 1377.83 371.933 1377.58 371.156C1380.4 370.534 1385.01 369.101 1387.98 366.026C1388.17 365.819 1388.17 365.491 1387.98 365.301C1387.77 365.111 1387.44 365.111 1387.25 365.301C1384.4 368.237 1379.79 369.619 1377.14 370.189C1376.81 369.722 1376.39 369.342 1375.84 369.083C1375.19 368.772 1374.46 368.686 1373.79 368.807C1372.58 366.458 1370.58 361.795 1371.11 357.564C1371.15 357.287 1370.96 357.028 1370.66 356.994C1370.39 356.959 1370.13 357.149 1370.09 357.443C1369.52 361.916 1371.53 366.665 1372.8 369.152C1372.2 369.481 1371.68 369.981 1371.35 370.655C1370.91 371.605 1370.94 372.641 1371.35 373.522C1371.32 373.539 1371.28 373.574 1371.25 373.591H1371.22C1371.22 373.591 1371.11 373.522 1371.06 373.47C1371.06 373.47 1371.03 373.436 1371.01 373.418C1370.96 373.367 1370.92 373.332 1370.87 373.263C1370.85 373.228 1370.82 373.194 1370.8 373.159C1370.75 373.09 1370.7 373.021 1370.65 372.935C1370.61 372.9 1370.59 372.848 1370.56 372.814C1370.49 372.71 1370.42 372.572 1370.35 372.434C1370.34 372.399 1370.32 372.365 1370.3 372.33C1370.21 372.14 1370.11 371.933 1370.02 371.691C1370.01 371.639 1369.97 371.57 1369.96 371.519C1369.87 371.329 1369.8 371.104 1369.71 370.88C1369.68 370.776 1369.64 370.672 1369.61 370.569C1369.52 370.344 1369.46 370.085 1369.37 369.826C1369.33 369.705 1369.3 369.601 1369.27 369.481C1369.16 369.118 1369.06 368.738 1368.94 368.323C1368.94 368.272 1368.92 368.237 1368.9 368.185C1368.78 367.702 1368.64 367.184 1368.52 366.614C1368.49 366.475 1368.45 366.303 1368.42 366.165C1368.32 365.733 1368.21 365.266 1368.13 364.783C1368.07 364.576 1368.04 364.351 1367.99 364.127C1367.88 363.643 1367.78 363.125 1367.68 362.572C1367.63 362.348 1367.59 362.123 1367.54 361.881C1367.4 361.087 1367.25 360.258 1367.09 359.36C1366.35 354.938 1364.76 350.862 1362.83 347.408C1362.19 346.251 1361.5 345.18 1360.79 344.179C1360.34 343.557 1359.89 342.952 1359.44 342.382C1359.17 342.054 1358.91 341.726 1358.63 341.415C1354.49 336.683 1350.23 334.818 1349.1 337.667C1348.97 338.03 1348.85 338.376 1348.74 338.686C1348.71 338.79 1348.69 338.894 1348.66 338.997C1348.6 339.205 1348.55 339.412 1348.5 339.602C1348.48 339.723 1348.45 339.826 1348.43 339.947C1348.4 340.103 1348.38 340.275 1348.36 340.414C1348.36 340.534 1348.33 340.655 1348.33 340.759C1348.33 340.897 1348.31 341.018 1348.31 341.156C1348.31 341.277 1348.31 341.398 1348.31 341.519C1348.31 341.622 1348.31 341.709 1348.31 341.812C1348.31 342.641 1348.41 343.419 1348.41 344.317C1348.41 345.888 1348.14 347.823 1346.65 351.052C1346.39 351.64 1346.12 352.175 1345.88 352.71C1342.79 359.083 1340.84 361.847 1349.71 368.772L1349.62 368.807C1349.62 368.807 1349.47 368.876 1349.36 368.911H1349.35C1348.28 369.342 1345.22 370.793 1343.36 373.833C1341.84 376.285 1341.13 379.774 1342.93 384.593C1343.06 384.99 1343.24 385.387 1343.41 385.784C1343.6 386.199 1343.79 386.579 1344 386.942C1344.2 387.304 1344.41 387.632 1344.63 387.926C1350.87 396.095 1365.31 384.783 1367.71 382.814L1363.1 393.47C1362.88 393.988 1363.1 394.575 1363.6 394.817C1364.1 395.059 1364.71 394.852 1364.97 394.351L1370.51 383.677C1370.51 383.677 1369.7 407.062 1382.09 405.249H1382.14C1382.56 405.18 1382.97 405.093 1383.4 404.972H1383.35Z" fill="#F6F6F6"/>
<path d="M582.807 170.851C583.877 169.158 584.516 167.604 584.896 166.171C584.896 166.171 584.896 166.205 584.896 166.222C584.947 166.015 584.965 165.842 585.016 165.635C585.086 165.359 585.155 165.065 585.189 164.789C585.224 164.547 585.224 164.305 585.258 164.063C585.293 163.511 585.293 162.958 585.258 162.457C585.258 162.285 585.258 162.112 585.224 161.956C585.189 161.68 585.12 161.438 585.068 161.179C585.034 161.007 584.999 160.817 584.947 160.661C584.878 160.419 584.792 160.195 584.706 159.953C584.637 159.798 584.585 159.625 584.516 159.469C584.412 159.245 584.326 159.038 584.205 158.83C584.136 158.675 584.05 158.537 583.964 158.399C583.843 158.209 583.739 158.001 583.601 157.829C583.515 157.708 583.428 157.587 583.342 157.466C583.204 157.293 583.083 157.103 582.945 156.948C582.859 156.844 582.79 156.775 582.704 156.672C582.41 156.343 582.134 156.05 581.84 155.773C581.771 155.704 581.685 155.635 581.616 155.566C581.478 155.445 581.357 155.342 581.219 155.238C581.133 155.169 581.029 155.083 580.943 155.013C580.822 154.927 580.719 154.841 580.598 154.754C580.511 154.685 580.408 154.616 580.322 154.564C580.218 154.495 580.132 154.444 580.045 154.374C579.959 154.323 579.89 154.271 579.804 154.219C579.735 154.167 579.666 154.133 579.614 154.098C579.545 154.046 579.493 154.029 579.424 153.994C579.389 153.977 579.355 153.96 579.32 153.943C579.251 153.908 579.217 153.891 579.217 153.891C588.589 148.606 587.14 145.704 585.12 139.262C584.947 138.727 584.775 138.174 584.619 137.587C583.67 134.323 583.687 132.458 583.912 130.972C584.033 130.126 584.222 129.401 584.361 128.623C584.361 128.537 584.395 128.433 584.412 128.347C584.412 128.226 584.447 128.123 584.447 128.002C584.447 127.881 584.464 127.76 584.481 127.622C584.481 127.518 584.481 127.397 584.481 127.294C584.481 127.138 584.481 126.983 584.481 126.827C584.481 126.724 584.481 126.603 584.481 126.499C584.481 126.309 584.447 126.119 584.43 125.912C584.43 125.808 584.412 125.705 584.395 125.601C584.395 125.584 584.395 125.549 584.395 125.532C584.343 125.238 584.292 124.927 584.205 124.582C583.428 121.231 577.629 123.425 572.226 129.072C571.691 129.642 571.156 130.23 570.621 130.869C569.568 132.129 568.55 133.528 567.617 135.031C567.151 135.791 566.703 136.568 566.288 137.38C566.081 137.777 565.874 138.191 565.684 138.606C565.097 139.85 564.562 141.162 564.131 142.527V142.561C563.906 143.183 563.717 143.753 563.527 144.323C563.475 144.461 563.44 144.599 563.389 144.737C563.199 145.273 563.026 145.791 562.853 146.292C562.819 146.378 562.802 146.464 562.767 146.533C562.612 146.965 562.456 147.38 562.318 147.777C562.284 147.863 562.249 147.967 562.215 148.053C562.059 148.485 561.904 148.882 561.749 149.262L561.645 149.521C561.507 149.849 561.369 150.178 561.248 150.471L561.196 150.609C561.058 150.938 560.92 151.231 560.799 151.507C560.765 151.577 560.73 151.646 560.696 151.715C560.575 151.991 560.454 152.25 560.333 152.475L560.299 152.544C560.195 152.751 560.092 152.958 559.988 153.131C559.971 153.183 559.936 153.235 559.919 153.269C559.816 153.459 559.712 153.632 559.626 153.787L559.557 153.891C559.47 154.029 559.401 154.15 559.315 154.254L559.263 154.323C559.177 154.444 559.108 154.547 559.022 154.651L558.97 154.72C558.901 154.806 558.832 154.893 558.763 154.962C558.763 154.962 558.625 155.1 558.573 155.152L558.538 155.186C558.538 155.186 558.435 155.273 558.383 155.307C558.383 155.307 558.297 155.359 558.245 155.376C558.245 155.376 558.159 155.411 558.124 155.411C558.003 155.428 557.934 155.376 557.917 155.376C558.435 154.599 558.625 153.615 558.331 152.665C558.089 151.87 557.554 151.248 556.881 150.851C558.452 148.589 560.765 144.599 560.868 140.523C560.868 140.247 560.661 140.022 560.385 140.022C560.109 140.022 559.885 140.229 559.885 140.506C559.781 144.409 557.434 148.364 555.932 150.488C555.414 150.368 554.862 150.368 554.309 150.54C553.636 150.748 553.084 151.162 552.687 151.68C550.322 150.817 545.886 148.83 543.521 145.514C543.366 145.29 543.055 145.238 542.831 145.394C542.606 145.549 542.555 145.86 542.71 146.084C545.213 149.59 549.683 151.646 552.203 152.561C551.979 153.183 551.945 153.874 552.152 154.564C552.445 155.514 553.153 156.222 554.016 156.585C554.016 156.62 553.999 156.671 553.981 156.706H553.964C553.964 156.706 553.861 156.741 553.792 156.741C553.774 156.741 553.757 156.741 553.722 156.741C553.671 156.741 553.602 156.741 553.515 156.741C553.481 156.741 553.446 156.741 553.395 156.723C553.325 156.723 553.239 156.689 553.136 156.672C553.084 156.672 553.049 156.654 552.998 156.637C552.877 156.602 552.756 156.551 552.618 156.499C552.583 156.499 552.549 156.482 552.514 156.464C552.324 156.395 552.134 156.309 551.893 156.205C551.841 156.188 551.789 156.153 551.737 156.119C551.548 156.032 551.358 155.929 551.151 155.825C551.064 155.773 550.978 155.722 550.874 155.67C550.667 155.566 550.443 155.428 550.219 155.29C550.115 155.238 550.029 155.169 549.925 155.117C549.614 154.927 549.286 154.737 548.941 154.513C548.907 154.495 548.872 154.461 548.82 154.444C548.423 154.184 547.992 153.908 547.526 153.597C547.405 153.511 547.284 153.425 547.163 153.338C546.818 153.096 546.438 152.837 546.059 152.561C545.886 152.44 545.713 152.319 545.541 152.181C545.161 151.905 544.747 151.594 544.333 151.283C544.16 151.145 543.987 151.024 543.797 150.886C543.176 150.419 542.537 149.936 541.847 149.4C538.464 146.775 534.718 144.944 531.128 143.77C529.937 143.373 528.746 143.062 527.607 142.82C526.882 142.665 526.191 142.544 525.501 142.44C525.087 142.371 524.69 142.319 524.293 142.285C518.32 141.646 514.109 143.096 515.162 145.825C515.3 146.171 515.438 146.482 515.576 146.775C515.628 146.879 515.679 146.965 515.714 147.052C515.8 147.224 515.904 147.414 515.99 147.57C516.042 147.673 516.111 147.76 516.163 147.863C516.249 148.001 516.335 148.122 516.422 148.243C516.491 148.33 516.56 148.433 516.629 148.52C516.715 148.623 516.784 148.71 516.87 148.813C516.94 148.9 517.026 148.986 517.095 149.072C517.164 149.141 517.216 149.21 517.285 149.28C517.837 149.849 518.389 150.35 518.976 150.972C519.995 152.077 521.048 153.614 522.083 156.844C522.273 157.431 522.446 157.984 522.601 158.519C524.552 164.996 524.966 168.208 535.702 167.328L535.668 167.414C535.668 167.414 535.599 167.569 535.547 167.673C535.081 168.692 533.855 171.697 534.511 175.031C535.029 177.725 536.79 180.644 541.174 182.872C541.536 183.044 541.899 183.234 542.296 183.407C542.693 183.58 543.073 183.718 543.452 183.839H543.469C543.832 183.96 544.194 184.046 544.557 184.098C554.223 185.79 557.054 168.485 557.468 165.549L561.127 176.032C561.3 176.533 561.852 176.809 562.353 176.654C562.871 176.499 563.164 175.963 563.026 175.445L560.005 164.357C560.005 164.357 574.574 181.334 582.099 172.008L582.134 171.974C582.376 171.663 582.617 171.335 582.859 170.972L582.807 170.851Z" fill="#F6F6F6"/>
<path d="M306.851 40.5451C309.008 43.1185 321.557 58.507 322.938 70.0612C310.216 110.838 347.12 122.841 347.12 122.841C352.816 106.054 350.659 89.992 343.616 80.3893C339.042 74.1545 332.552 69.4395 328.513 66.8661C326.891 59.3705 322.144 51.2704 318.001 45.2774C319.986 46.0027 321.971 46.7109 324.042 47.3499C337.299 51.374 346.499 55.3636 352.954 58.9042C349.951 91.3046 403.391 103.74 403.391 103.74C402.286 97.4531 409.484 83.6535 392.827 66.3825C380.745 53.861 365.503 53.8783 358.012 54.8282C352.178 51.4086 344.169 47.6608 333.053 43.8784C335.141 43.4121 337.143 42.894 338.852 42.3413C377.102 61.3394 392.24 26.7456 392.24 26.7456C352.16 5.96854 338.404 29.129 334.986 37.1945C330.032 38.5244 323.317 39.5779 321.056 39.9061C306.454 34.7075 294.233 26.901 284.705 19.1809C288.243 18.9909 292.369 18.5073 296.149 17.402C328.358 30.6834 348.933 -6.58747 348.933 -6.58747C309.353 -28.5907 293.422 4.6387 290.315 12.5143C285.119 13.3606 279.906 13.2915 277.749 13.2051C266.961 3.27427 261.109 -5.10215 260.988 -5.27486L256 -1.85521C256.552 -1.04347 264.061 9.6818 277.731 21.3743C279.061 23.7404 284.998 34.6902 285.413 43.913C260.747 66.8488 298.22 109.318 298.22 109.318L301.931 83.0663C304.607 64.0855 296.287 50.8904 291.454 45.0183C291.471 39.8197 289.987 34.2412 288.209 29.5089C293.75 33.4295 299.998 37.1945 306.868 40.5278L306.851 40.5451Z" fill="#5B9739"/>
<path d="M1303.46 74.6977C1306.01 74.0069 1308.03 73.0743 1309.67 72.0207C1309.67 72.038 1309.65 72.0553 1309.64 72.0725C1309.86 71.9171 1310.05 71.7616 1310.28 71.6062C1310.59 71.3817 1310.91 71.1744 1311.21 70.9327C1311.47 70.7254 1311.69 70.5009 1311.92 70.2764C1312.45 69.7755 1312.93 69.2401 1313.35 68.7047C1313.49 68.532 1313.64 68.3593 1313.76 68.1866C1313.97 67.893 1314.12 67.5821 1314.3 67.2884C1314.42 67.0812 1314.54 66.874 1314.64 66.6667C1314.8 66.3731 1314.92 66.0622 1315.04 65.7686C1315.13 65.5614 1315.21 65.3368 1315.28 65.1296C1315.38 64.836 1315.47 64.5424 1315.56 64.2315C1315.61 64.0242 1315.66 63.817 1315.71 63.5925C1315.78 63.2989 1315.83 63.0052 1315.89 62.7116C1315.92 62.5044 1315.94 62.3144 1315.95 62.1071C1315.99 61.8135 1316.02 61.5372 1316.04 61.2609C1316.04 61.0882 1316.04 60.95 1316.04 60.7773C1316.04 60.2074 1316.04 59.6547 1316.01 59.1366C1316.01 58.9984 1316.01 58.8602 1315.97 58.7393C1315.95 58.4975 1315.92 58.273 1315.89 58.0657C1315.87 57.9103 1315.85 57.7549 1315.82 57.5994C1315.78 57.3922 1315.75 57.2195 1315.71 57.0468C1315.68 56.8913 1315.66 56.7532 1315.63 56.615C1315.59 56.4595 1315.56 56.3214 1315.52 56.1832C1315.49 56.045 1315.45 55.9414 1315.44 55.8205C1315.4 55.7169 1315.38 55.6133 1315.35 55.5269C1315.32 55.4233 1315.3 55.3369 1315.26 55.2678C1315.25 55.216 1315.23 55.1642 1315.21 55.1297C1315.18 55.0433 1315.16 54.9915 1315.16 54.9915C1328.99 58.2557 1330.18 54.1453 1333.99 46.0624C1334.3 45.3889 1334.63 44.698 1334.99 43.9899C1337 39.983 1338.67 38.1696 1340.22 36.9261C1341.1 36.2179 1341.93 35.6825 1342.76 35.0435C1342.86 34.9744 1342.95 34.8881 1343.05 34.819C1343.17 34.7326 1343.28 34.629 1343.4 34.5254C1343.52 34.4218 1343.64 34.3009 1343.76 34.18C1343.87 34.0763 1343.97 33.9727 1344.07 33.8691C1344.21 33.7309 1344.35 33.5755 1344.49 33.42C1344.59 33.3164 1344.68 33.1955 1344.78 33.0919C1344.94 32.9019 1345.09 32.6947 1345.25 32.4702C1345.33 32.3665 1345.4 32.2629 1345.49 32.142C1345.51 32.1075 1345.52 32.0902 1345.54 32.0729C1345.76 31.7448 1345.99 31.3821 1346.21 30.9848C1348.47 27.0298 1340.86 23.9728 1330.56 24.6118C1329.52 24.6809 1328.47 24.7845 1327.4 24.9227C1325.24 25.199 1323.01 25.6481 1320.75 26.2871C1319.63 26.598 1318.49 26.9607 1317.35 27.3752C1316.78 27.5824 1316.21 27.7897 1315.66 28.0315C1313.97 28.7223 1312.3 29.5168 1310.64 30.4321L1310.59 30.4667C1309.84 30.8812 1309.14 31.2784 1308.45 31.6411C1308.27 31.7275 1308.1 31.8311 1307.95 31.9175C1307.27 32.2802 1306.63 32.6256 1306.03 32.9365C1305.93 32.9883 1305.82 33.0401 1305.72 33.0919C1305.18 33.3682 1304.67 33.6273 1304.17 33.8863C1304.04 33.9382 1303.92 34.0072 1303.8 34.0591C1303.27 34.3354 1302.75 34.5772 1302.27 34.8017C1302.16 34.8535 1302.04 34.9054 1301.94 34.9572C1301.51 35.1644 1301.09 35.3544 1300.7 35.5271C1300.64 35.5616 1300.58 35.5789 1300.52 35.6134C1300.09 35.8034 1299.71 35.9762 1299.33 36.1316C1299.25 36.1661 1299.14 36.218 1299.06 36.2525C1298.69 36.4079 1298.35 36.5461 1298.02 36.667L1297.92 36.7015C1297.62 36.8051 1297.35 36.9088 1297.09 36.9952C1297.02 37.0124 1296.95 37.0469 1296.88 37.0642C1296.62 37.1506 1296.36 37.2369 1296.14 37.306C1296.09 37.306 1296.04 37.3406 1295.98 37.3578C1295.78 37.4096 1295.6 37.4614 1295.43 37.5133L1295.33 37.5478C1295.14 37.5996 1294.97 37.6342 1294.81 37.6515H1294.71C1294.55 37.686 1294.41 37.7032 1294.29 37.7205C1294.15 37.7205 1294.05 37.7205 1293.95 37.7205H1293.9C1293.79 37.7205 1293.71 37.7205 1293.64 37.686C1293.64 37.686 1293.5 37.6514 1293.45 37.6342C1293.45 37.6342 1293.34 37.5823 1293.31 37.5651C1293.17 37.4787 1293.15 37.3751 1293.15 37.3405C1294.34 37.0297 1295.4 36.2525 1295.97 35.0608C1296.45 34.0591 1296.48 32.9883 1296.19 32.0038C1299.73 31.2093 1305.55 29.4132 1309.31 25.5272C1309.55 25.2681 1309.55 24.8536 1309.31 24.6118C1309.05 24.3528 1308.64 24.37 1308.39 24.6118C1304.8 28.3251 1298.97 30.0522 1295.62 30.7776C1295.22 30.1904 1294.67 29.7068 1294 29.3786C1293.17 28.9814 1292.26 28.8778 1291.41 29.0332C1289.89 26.0626 1287.35 20.1905 1288.03 14.8365C1288.08 14.4738 1287.82 14.1629 1287.46 14.1111C1287.09 14.0593 1286.78 14.3183 1286.73 14.681C1286.02 20.3286 1288.54 26.3216 1290.15 29.465C1289.37 29.8795 1288.72 30.5185 1288.32 31.3648C1287.75 32.5565 1287.8 33.8691 1288.32 34.9917C1288.27 35.009 1288.23 35.0608 1288.18 35.078H1288.15C1288.15 35.078 1288.03 34.9917 1287.96 34.9226C1287.94 34.9226 1287.92 34.8881 1287.91 34.8708C1287.85 34.819 1287.78 34.7499 1287.72 34.6808C1287.68 34.6463 1287.65 34.5945 1287.63 34.5599C1287.56 34.4736 1287.51 34.3872 1287.44 34.2836C1287.4 34.2318 1287.37 34.18 1287.34 34.1282C1287.25 33.99 1287.16 33.8346 1287.08 33.6619C1287.06 33.61 1287.03 33.5755 1287.01 33.5237C1286.89 33.2819 1286.78 33.0228 1286.65 32.7119C1286.61 32.6428 1286.59 32.5565 1286.56 32.4874C1286.46 32.2456 1286.35 31.9693 1286.25 31.6757C1286.21 31.5548 1286.16 31.4166 1286.11 31.2957C1286.01 31.0021 1285.9 30.6912 1285.82 30.3458C1285.77 30.2076 1285.73 30.0522 1285.68 29.8967C1285.54 29.4477 1285.4 28.9641 1285.26 28.4287C1285.26 28.3596 1285.23 28.3251 1285.21 28.256C1285.06 27.6515 1284.88 26.9779 1284.73 26.2698C1284.69 26.0798 1284.64 25.8899 1284.59 25.6999C1284.47 25.1472 1284.33 24.5773 1284.21 23.9555C1284.16 23.6792 1284.09 23.4029 1284.04 23.1093C1283.92 22.4875 1283.78 21.8312 1283.66 21.1576C1283.61 20.864 1283.56 20.5877 1283.49 20.2768C1283.3 19.2751 1283.11 18.2388 1282.92 17.099C1281.99 11.5204 1279.98 6.39098 1277.53 2.02142C1276.72 0.570649 1275.86 -0.793779 1274.96 -2.07183C1274.41 -2.8663 1273.84 -3.60894 1273.25 -4.33433C1272.91 -4.7661 1272.56 -5.16335 1272.22 -5.56058C1266.99 -11.5364 1261.6 -13.9025 1260.18 -10.2929C1260.01 -9.8265 1259.86 -9.412 1259.74 -8.99749C1259.7 -8.85932 1259.67 -8.73843 1259.63 -8.60027C1259.56 -8.3412 1259.49 -8.08213 1259.44 -7.84034C1259.41 -7.6849 1259.39 -7.54673 1259.36 -7.40856C1259.32 -7.20131 1259.29 -7.01134 1259.27 -6.82135C1259.25 -6.66592 1259.24 -6.52773 1259.22 -6.37229C1259.22 -6.19958 1259.2 -6.04415 1259.18 -5.87144C1259.18 -5.71601 1259.18 -5.56056 1259.18 -5.40512C1259.18 -5.28422 1259.18 -5.16334 1259.18 -5.04244C1259.2 -3.98891 1259.3 -3.00446 1259.3 -1.88185C1259.3 0.104315 1258.94 2.53953 1257.08 6.61548C1256.75 7.34086 1256.4 8.03172 1256.09 8.70528C1252.19 16.7363 1249.72 20.2423 1260.93 28.9814C1260.93 28.9814 1260.87 28.9814 1260.82 29.016H1260.81C1260.81 29.016 1260.62 29.085 1260.48 29.1541H1260.44C1259.1 29.7068 1255.23 31.5375 1252.88 35.3544C1250.98 38.4459 1250.07 42.85 1252.33 48.9467C1252.52 49.4475 1252.71 49.9484 1252.95 50.4665C1253.18 50.9846 1253.44 51.4682 1253.69 51.9346C1253.95 52.4009 1254.23 52.8154 1254.51 53.1781C1262.38 63.4889 1280.6 49.2058 1283.62 46.7187L1277.81 60.1728C1277.53 60.8118 1277.81 61.5718 1278.45 61.8827C1279.09 62.1935 1279.84 61.9345 1280.17 61.2955L1287.16 47.824C1287.16 47.824 1286.13 77.3402 1301.78 75.0432C1301.8 75.0432 1301.82 75.0432 1301.84 75.0432C1302.35 74.9568 1302.89 74.8532 1303.44 74.6977H1303.46Z" fill="#F6F6F6"/>
<path d="M761.543 678.718C762.544 676.991 763.131 675.402 763.459 673.968C763.459 673.968 763.459 674.003 763.459 674.02C763.511 673.813 763.528 673.623 763.563 673.433C763.615 673.139 763.666 672.863 763.701 672.587C763.735 672.328 763.718 672.103 763.736 671.861C763.753 671.291 763.736 670.756 763.666 670.255C763.649 670.082 763.632 669.91 763.615 669.754C763.563 669.478 763.494 669.236 763.425 668.977C763.373 668.804 763.339 668.632 763.287 668.459C763.2 668.217 763.114 667.993 763.028 667.768C762.959 667.613 762.89 667.44 762.821 667.302C762.717 667.094 762.614 666.887 762.493 666.68C762.406 666.542 762.32 666.404 762.234 666.265C762.113 666.076 761.992 665.886 761.854 665.713C761.768 665.592 761.664 665.471 761.578 665.35C761.44 665.177 761.302 665.005 761.164 664.849C761.077 664.763 760.991 664.677 760.905 664.59C760.611 664.279 760.301 663.986 760.007 663.727C759.938 663.658 759.852 663.589 759.783 663.519C759.645 663.399 759.507 663.295 759.369 663.191C759.265 663.122 759.179 663.036 759.092 662.967C758.972 662.88 758.851 662.794 758.747 662.725C758.644 662.656 758.557 662.604 758.471 662.535C758.367 662.466 758.281 662.414 758.195 662.362C758.108 662.31 758.039 662.259 757.953 662.224C757.884 662.19 757.815 662.138 757.746 662.103C757.677 662.069 757.608 662.034 757.556 662C757.522 661.982 757.487 661.965 757.453 661.948C757.383 661.913 757.349 661.896 757.349 661.896C766.532 656.283 764.978 653.433 762.717 647.06C762.527 646.525 762.337 645.989 762.148 645.402C761.095 642.172 761.026 640.307 761.198 638.822C761.302 637.976 761.457 637.25 761.561 636.456C761.561 636.369 761.578 636.266 761.595 636.179C761.595 636.059 761.612 635.955 761.63 635.834C761.63 635.713 761.63 635.575 761.647 635.454C761.647 635.35 761.647 635.23 761.647 635.126C761.647 634.97 761.647 634.815 761.63 634.66C761.63 634.556 761.63 634.435 761.612 634.331C761.595 634.141 761.561 633.951 761.526 633.744C761.526 633.641 761.492 633.537 761.474 633.433C761.474 633.416 761.474 633.382 761.474 633.364C761.423 633.071 761.354 632.76 761.25 632.432C760.352 629.098 754.639 631.516 749.444 637.354C748.926 637.941 748.408 638.563 747.907 639.202C746.906 640.497 745.94 641.931 745.059 643.468C744.628 644.245 744.196 645.039 743.816 645.851C743.627 646.266 743.437 646.68 743.247 647.112C742.694 648.39 742.228 649.703 741.831 651.084V651.119C741.642 651.741 741.469 652.328 741.296 652.898C741.262 653.036 741.21 653.174 741.176 653.312C741.003 653.865 740.848 654.383 740.692 654.884C740.658 654.97 740.64 655.057 740.606 655.143C740.468 655.575 740.33 655.989 740.192 656.387C740.157 656.473 740.123 656.576 740.088 656.68C739.95 657.112 739.795 657.509 739.657 657.906L739.57 658.165C739.449 658.511 739.329 658.839 739.208 659.133L739.156 659.271C739.035 659.599 738.914 659.91 738.794 660.186C738.759 660.255 738.742 660.324 738.707 660.393C738.586 660.67 738.483 660.929 738.379 661.171L738.345 661.257C738.241 661.481 738.155 661.671 738.069 661.861C738.051 661.913 738.017 661.965 738 662.017C737.913 662.207 737.81 662.38 737.723 662.535C737.706 662.57 737.689 662.604 737.672 662.639C737.603 662.777 737.516 662.898 737.447 663.019L737.413 663.088C737.326 663.209 737.257 663.329 737.188 663.416L737.136 663.485C737.067 663.571 736.998 663.658 736.929 663.744C736.929 663.744 736.808 663.882 736.739 663.934L736.705 663.968C736.705 663.968 736.601 664.055 736.55 664.089C736.55 664.089 736.463 664.158 736.411 664.176C736.411 664.176 736.325 664.21 736.291 664.21C736.17 664.228 736.101 664.193 736.084 664.176C736.567 663.381 736.722 662.397 736.394 661.447C736.118 660.652 735.566 660.048 734.893 659.685C736.377 657.371 738.535 653.295 738.5 649.202C738.5 648.925 738.276 648.718 738 648.718C737.723 648.718 737.516 648.943 737.516 649.219C737.568 653.122 735.359 657.164 733.943 659.34C733.408 659.236 732.856 659.271 732.321 659.461C731.665 659.685 731.13 660.117 730.75 660.652C728.351 659.875 723.863 658.062 721.377 654.832C721.205 654.625 720.911 654.573 720.687 654.746C720.48 654.918 720.428 655.212 720.601 655.437C723.224 658.856 727.781 660.739 730.318 661.568C730.129 662.207 730.111 662.898 730.353 663.571C730.681 664.521 731.406 665.195 732.286 665.523C732.286 665.557 732.286 665.609 732.269 665.644H732.252C732.252 665.644 732.148 665.678 732.079 665.678C732.062 665.678 732.045 665.678 732.01 665.678C731.958 665.678 731.889 665.678 731.803 665.678C731.768 665.678 731.734 665.678 731.682 665.678C731.613 665.678 731.527 665.644 731.423 665.626C731.371 665.626 731.337 665.609 731.285 665.592C731.164 665.557 731.043 665.523 730.905 665.471C730.871 665.471 730.836 665.454 730.802 665.437C730.612 665.367 730.405 665.281 730.18 665.195C730.129 665.177 730.077 665.143 730.025 665.126C729.835 665.039 729.645 664.953 729.421 664.849C729.335 664.815 729.231 664.763 729.145 664.711C728.938 664.607 728.713 664.487 728.471 664.366C728.368 664.314 728.264 664.262 728.161 664.193C727.85 664.02 727.522 663.83 727.16 663.623C727.125 663.606 727.091 663.571 727.039 663.554C726.625 663.312 726.193 663.036 725.727 662.742C725.606 662.673 725.468 662.587 725.347 662.5C724.985 662.276 724.605 662.034 724.208 661.758C724.035 661.637 723.846 661.516 723.673 661.395C723.276 661.136 722.862 660.842 722.43 660.549C722.24 660.428 722.068 660.307 721.878 660.169C721.239 659.737 720.583 659.271 719.876 658.753C716.406 656.266 712.591 654.556 708.949 653.519C707.741 653.174 706.55 652.898 705.394 652.691C704.669 652.57 703.961 652.466 703.271 652.38C702.856 652.328 702.459 652.293 702.062 652.259C696.073 651.844 691.913 653.433 693.069 656.127C693.225 656.473 693.363 656.784 693.518 657.06C693.57 657.164 693.622 657.233 693.674 657.336C693.777 657.509 693.863 657.682 693.967 657.837C694.036 657.941 694.088 658.027 694.157 658.114C694.243 658.235 694.329 658.373 694.416 658.476C694.485 658.563 694.554 658.649 694.623 658.735C694.709 658.839 694.778 658.925 694.864 659.012C694.951 659.098 695.02 659.184 695.106 659.271C695.175 659.34 695.244 659.409 695.313 659.461C695.883 660.013 696.47 660.48 697.074 661.101C698.127 662.172 699.232 663.675 700.405 666.853C700.612 667.423 700.802 667.975 700.975 668.493C703.15 674.901 703.702 678.096 714.387 676.818L714.352 676.904C714.352 676.904 714.283 677.06 714.249 677.163C713.817 678.2 712.712 681.239 713.489 684.556C714.11 687.233 715.975 690.082 720.428 692.155C720.79 692.327 721.17 692.483 721.567 692.638C721.964 692.794 722.361 692.932 722.741 693.036H722.758C723.138 693.139 723.5 693.208 723.846 693.26C733.563 694.607 735.756 677.198 736.066 674.245L740.105 684.573C740.295 685.074 740.848 685.333 741.348 685.143C741.849 684.97 742.125 684.417 741.97 683.917L738.552 672.949C738.552 672.949 753.724 689.374 760.922 679.789L760.956 679.754C761.198 679.443 761.423 679.098 761.63 678.718H761.543Z" fill="#F6F6F6"/>
<path d="M1853.85 16.3674C1852.19 19.2862 1842.65 36.6954 1843.41 48.3187C1863.32 86.1077 1829.22 104.622 1829.22 104.622C1820.57 89.1474 1819.76 72.9645 1824.95 62.2392C1828.32 55.279 1833.84 49.4586 1837.35 46.1944C1837.59 38.5261 1840.78 29.7006 1843.75 23.0513C1841.94 24.1221 1840.11 25.1929 1838.19 26.1773C1825.89 32.5503 1817.57 38.1461 1811.87 42.8093C1820.71 74.1389 1770.41 96.073 1770.41 96.073C1770.36 89.6828 1760.76 77.4376 1774 57.4205C1783.6 42.8956 1798.6 40.1496 1806.14 39.7351C1811.27 35.2964 1818.45 30.1669 1828.7 24.4329C1826.56 24.3639 1824.51 24.2084 1822.73 23.9839C1788.57 49.6141 1767.41 18.3708 1767.41 18.3708C1803.05 -9.34914 1820.78 10.927 1825.61 18.2327C1830.72 18.6472 1837.5 18.4572 1839.82 18.3708C1853.23 10.6161 1863.83 0.702599 1871.8 -8.62375C1868.28 -8.15743 1864.14 -7.89836 1860.22 -8.29559C1830.96 10.6162 1803.95 -22.2851 1803.95 -22.2851C1838.87 -51.1104 1860.56 -21.3352 1865.07 -14.1677C1870.33 -14.2886 1875.44 -15.3076 1877.55 -15.7739C1886.35 -27.5009 1890.6 -36.81 1890.67 -37L1896.19 -34.5475C1895.79 -33.6494 1890.36 -21.7324 1879.05 -7.74294C1878.17 -5.18683 1874.32 6.67835 1875.6 15.8147C1904.03 33.8802 1874.89 82.4635 1874.89 82.4635L1866.47 57.3169C1860.37 39.1478 1866.17 24.6575 1869.85 18.0081C1868.88 12.8959 1869.33 7.14466 1870.23 2.15334C1865.48 7.02376 1860.05 11.8597 1853.88 16.3847L1853.85 16.3674Z" fill="#5B9739"/>
</g>
</g>
</g>
<defs>
<clipPath id="clip0_98_10">
<rect width="1920" height="850" fill="white"/>
</clipPath>
</defs>
</svg>
